<svg xmlns="http://www.w3.org/2000/svg" width="15.309" height="19.116" viewBox="0 0 15.309 19.116">
  <defs>
    <style>
      .cls-1 {
        fill: #d3fca8;
      }

      .cls-2 {
        fill: #cffaa1;
      }

      .cls-3 {
        fill: #d1fba5;
      }
    </style>
  </defs>
  <g id="グループ_5" data-name="グループ 5" transform="translate(-423.721 -6777.064)">
    <path id="パス_7362" data-name="パス 7362" class="cls-1" d="M1256.63,1010.09c-.19.36-.37.72-.55,1.09h0l2.66-.78c-.31-.91-.6-1.83-.86-2.75-.07.14-.15.28-.22.42l-.42.81c-.21.4-.42.81-.62,1.21Z" transform="translate(-830.89 5785)"/>
    <path id="パス_7363" data-name="パス 7363" class="cls-1" d="M1255.83,999.07a11.159,11.159,0,0,0-1.2,5.7,21.864,21.864,0,0,0,.93,4.94,9.119,9.119,0,0,0,.34,1.23c.13-.37.26-.73.4-1.09.17-.45.35-.89.55-1.32.13-.29.26-.58.4-.87s.28-.55.42-.83c-.05-.2-.11-.39-.16-.59-.58-2.38-1.13-4.77-1.67-7.16Z" transform="translate(-830.89 5785)"/>
    <path id="パス_7369" data-name="パス 7369" class="cls-2" d="M1269.71,1000.13a13.066,13.066,0,0,0-.16-5.32c-.12-.61-.24-1.22-.39-1.82-.07-.28-.26-1.11-.24-.82a12.718,12.718,0,0,0-7.45,1.34q.69,2.01,1.44,3.99c.05-.12.09-.24.14-.35a6.216,6.216,0,0,1,.82-1.43c0-.01.03-.02.04,0,.01,0,.02.03,0,.04a7.378,7.378,0,0,0-.9,2.01c.09.23.17.45.26.68.69-.84,1.4-1.67,2.14-2.47a.049.049,0,0,1,.07.07c-.74.88-1.44,1.78-2.11,2.69.12.32.24.64.37.95.13-.06.25-.12.38-.18a12.124,12.124,0,0,0,2.63-1.47c.01-.01.03,0,.04,0s0,.03,0,.04a8.432,8.432,0,0,1-1.02.76c-.62.39-1.28.72-1.94,1.06.35.91.7,1.81,1.06,2.72.01,0,.03-.02.04-.03h.04v.04a.1.1,0,0,0-.05.04c.46,1.18.92,2.36,1.37,3.54a11.941,11.941,0,0,0,3.44-6.07Z" transform="translate(-830.89 5785)"/>
    <path id="パス_7370" data-name="パス 7370" class="cls-3" d="M1262.03,1000.58a2.324,2.324,0,0,1,.26-.17,15.012,15.012,0,0,1,1.44-.74c-.12-.32-.25-.64-.37-.95-.46.62-.91,1.23-1.34,1.86Z" transform="translate(-830.89 5785)"/>
    <path id="パス_7371" data-name="パス 7371" class="cls-3" d="M1259.43,1010.2a18.119,18.119,0,0,0,6.84-4.01c-.45-1.18-.91-2.36-1.37-3.54-.48.36-.97.71-1.47,1.04-.77.51-1.57,1-2.35,1.5-.63.4-1.28.79-1.87,1.23-.18.13-.35.27-.52.42-.11.1-.22.19-.33.29l-.39.36c-.03.05-.05.1-.08.15.26.92.55,1.84.86,2.75l.68-.2Z" transform="translate(-830.89 5785)"/>
    <path id="パス_7372" data-name="パス 7372" class="cls-3" d="M1263.27,1000.17c-.35.19-.69.4-1.03.61-.08.05-.17.1-.25.16l-.32.18-.66,1.02c-.85,1.34-1.64,2.72-2.39,4.12-.09.16-.17.33-.26.49.1-.1.21-.19.32-.28a18.193,18.193,0,0,1,2.29-1.47c.8-.47,1.61-.93,2.4-1.41.51-.31,1.02-.64,1.51-.99-.35-.91-.71-1.81-1.06-2.72-.18.1-.37.19-.55.29Z" transform="translate(-830.89 5785)"/>
    <path id="パス_7373" data-name="パス 7373" class="cls-3" d="M1262.89,998.13c-.12.41-.24.82-.38,1.23.25-.31.51-.62.76-.93-.09-.23-.17-.45-.26-.68C1262.97,997.88,1262.93,998,1262.89,998.13Z" transform="translate(-830.89 5785)"/>
    <path id="パス_7374" data-name="パス 7374" class="cls-3" d="M1255.83,999.07c.54,2.39,1.09,4.78,1.67,7.16.05.2.11.39.16.59l.27-.54c-.01,0-.02-.02-.02-.03.02-.15.02-.29.03-.44a1.693,1.693,0,0,1,.01-.22l.04-.63c.02-.32.02-.65.02-.97a18.684,18.684,0,0,1,.05-2.12,4.411,4.411,0,0,1,.57-1.8c0-.01.02-.02.04-.01s.02.02.01.04a3.938,3.938,0,0,0-.39,1.17,10.59,10.59,0,0,0-.04,2.39c.02.32.03.65.03.97a4.64,4.64,0,0,1-.03.65c-.01.1-.03.2-.05.3a1.461,1.461,0,0,1-.05.2l-.08.23a.274.274,0,0,1,.04-.07c.46-.84.95-1.66,1.46-2.46.68-1.07,1.4-2.12,2.17-3.14.04-.05.08-.11.12-.16l.07-.19c.05-.11.1-.22.14-.33.07-.17.14-.34.21-.5.21-.55.4-1.11.62-1.66q-.75-2-1.44-3.99a12.813,12.813,0,0,0-5.64,5.57Z" transform="translate(-830.89 5785)"/>
  </g>
</svg>
