<svg xmlns="http://www.w3.org/2000/svg" width="58.704" height="42.388" viewBox="0 0 58.704 42.388">
  <defs>
    <style>
      .cls-1 {
        fill: none;
      }

      .cls-2 {
        fill: #cdf9a0;
      }

      .cls-3 {
        fill: #cbf99d;
      }

      .cls-4 {
        fill: #cbf99c;
      }

      .cls-5 {
        fill: #caf99a;
      }
    </style>
  </defs>
  <g id="グループ_6" data-name="グループ 6" transform="translate(-491.654 -6799.839)">
    <path id="パス_7127" data-name="パス 7127" class="cls-1" d="M1359.68,1034.77c.23-.04.45-.07.57-.1.01-.01.02-.03.04-.04-2-1.89-3.94-3.69-5.65-5.6.03.05.05.09.08.14,1.62,1.86,3.37,3.64,4.97,5.5-.28.62-.71,1.28-1.09,1.93l.06.09c.36-.52.79-1.04,1.22-1.56-.06-.12-.13-.24-.19-.35Z" transform="translate(-830.89 5785)"/>
    <path id="パス_7128" data-name="パス 7128" class="cls-1" d="M1353.66,1027.91s-.02-.03-.03-.05a24.169,24.169,0,0,1-2.08-2.88A28.577,28.577,0,0,0,1353.66,1027.91Z" transform="translate(-830.89 5785)"/>
    <path id="パス_7129" data-name="パス 7129" class="cls-1" d="M1358.16,1037.46a3.37,3.37,0,0,1,.21-.36c-.01-.02-.03-.03-.04-.05-.07.13-.14.27-.2.4h.03Z" transform="translate(-830.89 5785)"/>
    <path id="パス_7131" data-name="パス 7131" class="cls-1" d="M1360.32,1034.67a.031.031,0,0,0-.01-.02.208.208,0,0,0-.06.02l-.01.01a.276.276,0,0,0,.09-.01Z" transform="translate(-830.89 5785)"/>
    <path id="パス_7132" data-name="パス 7132" class="cls-1" d="M1357.79,1039.13a1.746,1.746,0,0,1,.05-.9h0a1.74,1.74,0,0,0-.04.9Z" transform="translate(-830.89 5785)"/>
    <path id="パス_7375" data-name="パス 7375" class="cls-2" d="M1332.81,1054.55c-.16-1.52-.31-3.07-.47-4.65,4.05.04,8.32.07,13.18.12-1.54-2.38-2.78-5.78-5.18-7.72l-.02-.02a9.167,9.167,0,0,1-2.17-1.12c-.02-.02-.03-.05-.01-.07s.05-.03.07-.01a9.156,9.156,0,0,0,1.69.84c-3.98-3.36-5.48-6.7-3.41-10.45a12.759,12.759,0,0,1-2.12-.48,7.541,7.541,0,0,1-3.27-2.1.049.049,0,0,1,.07-.07,7.365,7.365,0,0,0,3.3,1.85,13.5,13.5,0,0,0,2.29.37,13.967,13.967,0,0,1,1.73-2.21c-.36-.36-.7-.75-1.04-1.12-2.54.29-4.99.56-7.36.83.03.12.05.24.09.36-.24-.1-.47-.19-.71-.29-2.05.23-4.05.46-6.02.68-1.71,6.8-1.2,13.94,3.27,19.92a18.936,18.936,0,0,0,6.11,5.33Z" transform="translate(-830.89 5785)"/>
    <path id="パス_7376" data-name="パス 7376" class="cls-2" d="M1339.92,1027.43l-2.11.24c.3.31.59.62.9.91C1339.08,1028.2,1339.48,1027.82,1339.92,1027.43Z" transform="translate(-830.89 5785)"/>
    <path id="パス_7377" data-name="パス 7377" class="cls-3" d="M1354.71,1029.17c.53,1,1.05,2,1.55,3.03.45.94.89,1.87,1.37,2.77.1.19.21.38.32.57s.21.38.33.57c.1.17.21.33.31.49a21.186,21.186,0,0,0,1.09-1.93c-1.6-1.87-3.35-3.65-4.97-5.5Z" transform="translate(-830.89 5785)"/>
    <path id="パス_7378" data-name="パス 7378" class="cls-3" d="M1339.88,1041.92a8.12,8.12,0,0,0,3.93.44,19.033,19.033,0,0,0,5.47-1.82c.82-.38,1.64-.78,2.47-1.16.36-.16.72-.32,1.08-.47.33-.13.66-.26.99-.37s.67-.22,1.01-.3c.49-.12.97-.22,1.45-.29.16-.02.31-.04.47-.05-1.06-.31-2.13-.62-3.18-.94a66.513,66.513,0,0,1-7.71-2.8,21.969,21.969,0,0,1-3.63-2.09l-.27-.03c-.22-.03-.44-.05-.66-.07s-.44-.04-.66-.07c-.25-.03-.5-.05-.74-.08-.59-.06-1.18-.11-1.76-.16-.56-.05-1.11-.11-1.65-.19-2.07,3.75-.57,7.09,3.41,10.45Z" transform="translate(-830.89 5785)"/>
    <path id="パス_7379" data-name="パス 7379" class="cls-3" d="M1338.17,1031.14c.59.03,1.18.05,1.77.1.26.02.51.05.76.08a5.427,5.427,0,0,1,.68.13h0q-.615-.48-1.2-.99c-.59-.52-1.16-1.07-1.71-1.63a13.528,13.528,0,0,0-1.73,2.21c.47.04.94.07,1.42.09Z" transform="translate(-830.89 5785)"/>
    <path id="パス_7380" data-name="パス 7380" class="cls-3" d="M1345.51,1050.02c-4.85-.04-9.13-.08-13.18-.12.16,1.58.32,3.12.47,4.65,8.58,4.7,20.19,2.47,29.31-1.01-1.58-4.76-3.09-9.55-4.33-14.41a1.852,1.852,0,0,1,.04-.9c-.29-.09-.58-.17-.88-.26a.035.035,0,0,1-.02.01l-.6.18c-.46.14-.91.31-1.36.49l-.96.39c-.32.14-.63.27-.95.41-.35.15-.71.31-1.06.47-.83.37-1.66.75-2.5,1.1a18.56,18.56,0,0,1-5.65,1.66,8.3,8.3,0,0,1-3.54-.42l.02.02c2.41,1.94,3.64,5.33,5.18,7.72Z" transform="translate(-830.89 5785)"/>
    <path id="パス_7381" data-name="パス 7381" class="cls-3" d="M1324.25,1026.51c-.31.92-.59,1.85-.83,2.78,1.97-.22,3.97-.45,6.02-.68-1.83-.74-3.47-1.41-5.19-2.1Z" transform="translate(-830.89 5785)"/>
    <path id="パス_7382" data-name="パス 7382" class="cls-3" d="M1330.07,1028.54c2.38-.27,4.82-.54,7.36-.83a58.522,58.522,0,0,1-3.9-4.84.057.057,0,1,1,.09-.07,59.039,59.039,0,0,0,4.19,4.87c.7-.08,1.39-.16,2.11-.24-.44.39-.84.77-1.21,1.15.57.54,1.14,1.07,1.75,1.57a26.334,26.334,0,0,0,2.57,1.87l.3.15c.02,0,.03.03.03.05a21.345,21.345,0,0,0,2.22,1.18c-.04-.03-.08-.07-.12-.1a6.9,6.9,0,0,1-.77-.76c-.16-.18-.31-.37-.45-.56a13.493,13.493,0,0,1-.85-1.36c-.6-1.08-1.1-2.23-1.65-3.3a24.474,24.474,0,0,0-1.62-2.75,26.331,26.331,0,0,0-1.96-2.53.049.049,0,0,1,.07-.07,24.446,24.446,0,0,1,2.11,2.44,25.69,25.69,0,0,1,1.78,2.7c.59,1.04,1.14,2.16,1.77,3.22.27.45.55.88.84,1.3.13.19.27.37.4.55.21.27.42.54.65.79.15.17.31.34.47.5l.42.39a73.146,73.146,0,0,0,7.37,2.45c1.37.39,2.74.77,4.11,1.15.06-.13.13-.26.2-.4-.08-.1-.17-.18-.25-.28-.09-.12-.18-.24-.27-.37-.13-.19-.25-.37-.37-.57s-.23-.39-.33-.59c-.48-.91-.88-1.87-1.31-2.83-.67-1.54-1.37-3.04-2.14-4.5a28.564,28.564,0,0,1-2.11-2.93c-1.24-2.02-1.36-3.64-.85-5.02a53.509,53.509,0,0,1-13.08-1.81,24.868,24.868,0,0,1-4.8-1.83c-.18-.09-.35-.2-.52-.3-3.02,2.58-3.71,6.63-2.22,12.52Z" transform="translate(-830.89 5785)"/>
    <path id="パス_7383" data-name="パス 7383" class="cls-4" d="M1330.51,1014.87a.394.394,0,0,0,.06-.02C1330.5,1014.83,1330.49,1014.84,1330.51,1014.87Z" transform="translate(-830.89 5785)"/>
    <path id="パス_7384" data-name="パス 7384" class="cls-4" d="M1330.16,1028.9c-.03-.12-.05-.24-.09-.36-1.49-5.89-.79-9.94,2.22-12.52-.33-.18-.66-.36-.99-.56a5.95,5.95,0,0,1-.8-.59c-.51.2-1,1.31-1.26,1.69a42.356,42.356,0,0,0-3.21,5.59,39.486,39.486,0,0,0-1.79,4.36c1.72.7,3.37,1.36,5.19,2.1.24.1.47.19.71.29Z" transform="translate(-830.89 5785)"/>
    <path id="パス_7385" data-name="パス 7385" class="cls-4" d="M1357.79,1039.13c1.24,4.85,2.74,9.65,4.33,14.41.83-.32,1.65-.65,2.43-.98a44.6,44.6,0,0,0,8.4-4.49l2.56-2.02a26.531,26.531,0,0,0-3.7-2.56l-1.6.08-.96.04c-.5.02-1,.04-1.5.08a.771.771,0,0,0-.15.02h0c-.18.1-.36.19-.54.29a2.113,2.113,0,0,1-.11-.21c-.69.08-1.37.18-2.03.32-1.12.24-2.22.67-3.34.92a7.423,7.423,0,0,1-1.49.2.05.05,0,1,1,0-.1,7.822,7.822,0,0,0,1.44-.29c1.11-.32,2.18-.82,3.29-1.13.61-.17,1.23-.3,1.86-.41l-.75-1.41c.18-.1.36-.19.54-.29.28.53.57,1.06.85,1.59a16.179,16.179,0,0,1,1.83-.17h.59c.3.01.59.04.88.07.2.03.39.06.58.1l.1.02a40.568,40.568,0,0,0-5.78-2.56c-1.35-.49-2.73-.93-4.12-1.35-1.18-.36-2.38-.71-3.57-1.05a1.747,1.747,0,0,0-.05.9Z" transform="translate(-830.89 5785)"/>
    <path id="パス_7386" data-name="パス 7386" class="cls-4" d="M1358.87,1037.66l-.09-.09a6.011,6.011,0,0,1-.41-.47,3.35,3.35,0,0,0-.21.36C1358.4,1037.53,1358.63,1037.59,1358.87,1037.66Z" transform="translate(-830.89 5785)"/>
    <path id="パス_7387" data-name="パス 7387" class="cls-4" d="M1351.55,1024.98a26.27,26.27,0,0,0,2.08,2.88c-.1-.19-.19-.38-.29-.57a29.125,29.125,0,0,0-2.01-3.21.05.05,0,0,1,.08-.06,30.134,30.134,0,0,1,2.17,3.13c.37.61.71,1.24,1.05,1.87,1.71,1.9,3.65,3.71,5.65,5.6-.01.01-.02.03-.04.04a.107.107,0,0,0,.06-.02.031.031,0,0,0,.01.02l.56-.09c.75,1.4,1.49,2.8,2.24,4.2-.06.03-.12.07-.18.1a.142.142,0,0,1,.06.02,53.573,53.573,0,0,1,5.27,2.01,33.828,33.828,0,0,1,3.99,2.13,9.131,9.131,0,0,1-.41-.83c-.11-.24-.2-.48-.29-.73-.13-.37-.24-.74-.34-1.12-.31-1.16-.54-2.36-.74-3.56-.3-1.81-.53-3.62-.83-5.35a.051.051,0,0,1,.1-.02c.35,1.47.65,3,.98,4.54.22,1,.45,2.01.71,3,.13.5.27.99.42,1.48.1.33.2.65.3.97.06.2.12.41.18.61s.12.41.18.61l.21.7q1.155.765,2.25,1.65c.3.25.59.5.88.77a30.884,30.884,0,0,0,4.12-7.18,22.266,22.266,0,0,0,1.24-5.87,11.539,11.539,0,0,0,0-1.86c-3.35-.11-5.62-2.09-10.85-6.66-1.46,2.5-2.86,4.89-5.38,9.2-3.74-4.66-7.1-8.84-10.46-13.02.08-.11.16-.23.25-.34h-1.82q-1.125-.015-2.25-.06c-.51,1.38-.39,3,.85,5.02Z" transform="translate(-830.89 5785)"/>
    <path id="パス_7388" data-name="パス 7388" class="cls-4" d="M1360.24,1034.68l.01-.01a5.261,5.261,0,0,1-.57.1l.56-.09Z" transform="translate(-830.89 5785)"/>
    <path id="パス_7389" data-name="パス 7389" class="cls-4" d="M1358.65,1036.68c.06.09.11.19.18.28.08.12.16.24.25.36.12.17.25.34.38.5.74.21,1.48.45,2.21.67-.6-1.12-1.2-2.25-1.8-3.37-.43.52-.86,1.04-1.22,1.56Z" transform="translate(-830.89 5785)"/>
    <path id="パス_7390" data-name="パス 7390" class="cls-5" d="M1364.98,1033.39c2.52-4.31,3.92-6.7,5.38-9.2,5.23,4.57,7.5,6.55,10.85,6.66a12.017,12.017,0,0,0-.26-1.8c-2.25-9.76-15.17-8.98-22.76-9.01h-3.42c-.08.11-.16.23-.25.34,3.36,4.18,6.72,8.36,10.46,13.02Z" transform="translate(-830.89 5785)"/>
    <path id="パス_7391" data-name="パス 7391" class="cls-3" d="M1360.88,1034.58l-.56.09a.276.276,0,0,0-.09.01l-.56.09c.06.12.13.24.19.35.6,1.12,1.2,2.25,1.8,3.37.43.13.86.25,1.28.39.06-.03.12-.07.18-.1C1362.37,1037.38,1361.63,1035.98,1360.88,1034.58Z" transform="translate(-830.89 5785)"/>
    <path id="パス_7392" data-name="パス 7392" class="cls-3" d="M1367.6,1043.7h0c-.22.02-.44.05-.65.07a2.113,2.113,0,0,1,.11.21c.18-.1.36-.19.54-.29Z" transform="translate(-830.89 5785)"/>
    <path id="パス_7393" data-name="パス 7393" class="cls-3" d="M1365.93,1041.88l.75,1.41a2.733,2.733,0,0,1,.28-.05c.12-.02.24-.03.36-.05-.28-.53-.57-1.06-.85-1.59-.18.1-.36.19-.54.29Z" transform="translate(-830.89 5785)"/>
  </g>
</svg>
