<svg xmlns="http://www.w3.org/2000/svg" width="51.416" height="41.703" viewBox="0 0 51.416 41.703">
  <defs>
    <style>
      .cls-1 {
        fill: #eeffdc;
      }

      .cls-2 {
        fill: #edffda;
      }

      .cls-3 {
        fill: #ecffd8;
      }

      .cls-4 {
        fill: #ebffd6;
      }

      .cls-5 {
        fill: #eaffd5;
      }
    </style>
  </defs>
  <g id="グループ_16" data-name="グループ 16" transform="translate(-1392.95 -6580.288)">
    <path id="パス_7134" data-name="パス 7134" class="cls-1" d="M2233.85,797.08c.15.27.32.52.47.78.05-.32.11-.65.16-.97l-.64.19Z" transform="translate(-830.89 5785)"/>
    <path id="パス_7135" data-name="パス 7135" class="cls-1" d="M2233.59,816.23c-.85-5.71-.32-11.7.63-17.68-.09-.15-.18-.29-.26-.44-.16-.3-.32-.6-.47-.91a26.65,26.65,0,0,0-5.67,4.52,19.715,19.715,0,0,0-2.9,4.38,10.667,10.667,0,0,0-.97,3.07c-.95,6.28,4.44,9.86,9.83,12.3a24.819,24.819,0,0,0-.18-5.24Z" transform="translate(-830.89 5785)"/>
    <path id="パス_7140" data-name="パス 7140" class="cls-2" d="M2241.52,797.38a7.36,7.36,0,0,1-.16-1.88,31.587,31.587,0,0,0-4.77.75l-2.1.63c-.05.32-.11.65-.16.97a24.075,24.075,0,0,0,1.72,2.5l1.33.45.8.28c.41.15.83.29,1.25.42a19.612,19.612,0,0,0,2.44.58h.02a14.943,14.943,0,0,0-.35-4.7Z" transform="translate(-830.89 5785)"/>
    <path id="パス_7141" data-name="パス 7141" class="cls-2" d="M2234.89,804.16c.05-.45.09-.89.13-1.34.02-.3.04-.59.07-.89.02-.19.03-.37.05-.56s.03-.37.05-.56l.05-.63c-.37-.53-.71-1.07-1.03-1.63-.94,5.98-1.47,11.96-.63,17.68a25.5,25.5,0,0,1,.18,5.24c1.13.51,2.26.97,3.33,1.4.62-3.86,1.58-7.78,2.39-11.32.43-1.86,1.03-3.54,1.53-5.24a39.768,39.768,0,0,1-2.92-2.72,28.206,28.206,0,0,1-2.56-3.02,7.37,7.37,0,0,1,.07.81v.69c-.01.34-.05.68-.09,1.02-.12,1.05-.32,2.09-.54,3.13-.33,1.57-.74,3.12-1.05,4.63a.041.041,0,0,1-.08-.02c.19-1.31.44-2.65.66-4.01q.225-1.335.39-2.67Z" transform="translate(-830.89 5785)"/>
    <path id="パス_7142" data-name="パス 7142" class="cls-2" d="M2241.8,802.44a17.89,17.89,0,0,1-1.9-.31,14.992,14.992,0,0,1-1.85-.53c-.16-.06-.32-.12-.48-.19-.24-.11-.47-.22-.69-.34-.15-.08-.3-.17-.44-.26l-.07-.05a35.181,35.181,0,0,0,3.88,3.94c.32.28.67.55,1,.83a19.421,19.421,0,0,0,.6-3.09h-.04Z" transform="translate(-830.89 5785)"/>
    <path id="パス_7154" data-name="パス 7154" class="cls-3" d="M2237.09,822.87c.87.35,1.71.67,2.47.98,1.22.49,2.45.96,3.67,1.45-.78-1.76-.04-3.58,2.31-6.22-.23-1.49-.38-3-.5-4.52-.06-.91-.12-1.81-.23-2.7-.02-.19-.05-.38-.07-.57s-.05-.38-.08-.57c-.05-.29-.1-.58-.17-.87-.03-.12-.06-.25-.09-.37-.04-.18-.09-.35-.14-.53-.86-.66-1.71-1.33-2.54-2.02-.24-.2-.48-.42-.72-.62-.5,1.7-1.1,3.38-1.53,5.24-.82,3.54-1.77,7.46-2.39,11.32Z" transform="translate(-830.89 5785)"/>
    <path id="パス_7155" data-name="パス 7155" class="cls-3" d="M2249.77,810.18c-.23,0-.45,0-.68-.01-.31-.02-.62-.04-.92-.08a10.19,10.19,0,0,1-1.27-.24c-.13-.03-.27-.07-.4-.11.77.59,1.53,1.19,2.29,1.79.83.66,1.65,1.34,2.44,2.03.22-.2.44-.4.67-.6-.76-.92-1.47-1.85-2.13-2.78Z" transform="translate(-830.89 5785)"/>
    <path id="パス_7156" data-name="パス 7156" class="cls-3" d="M2247.93,795.31c-1.04-.03-2.06-.03-3.05,0-1.16.03-2.34.1-3.51.2a6.937,6.937,0,0,0,.16,1.88,14.977,14.977,0,0,1,.35,4.7c.98.16,2,.17,2.99.32a6.948,6.948,0,0,1,1.27.32c.02,0,.03.03.03.05s-.03.03-.06.03a6.911,6.911,0,0,0-1.27-.23c-1-.09-2.01-.04-3.01-.14a20.606,20.606,0,0,1-.6,3.09c.63.54,1.26,1.08,1.92,1.6,1.06.84,2.13,1.67,3.2,2.5h.02c.18.02.36.03.55.05.42.03.84.04,1.27.04.3,0,.6,0,.91-.01.11,0,.22,0,.33-.01-2.91-4.34-4.26-8.89-1.5-14.39Z" transform="translate(-830.89 5785)"/>
    <path id="パス_7157" data-name="パス 7157" class="cls-3" d="M2250.77,813.97c-.84-.69-1.7-1.37-2.57-2.03-1.16-.9-2.35-1.78-3.52-2.67l.04.1c.12.29.22.58.31.87.04.13.07.26.1.38.05.19.09.39.12.58s.06.39.08.59c.1.9.12,1.81.16,2.73.05,1.44.14,2.87.29,4.29,1.24-1.36,2.9-2.94,4.99-4.84Z" transform="translate(-830.89 5785)"/>
    <path id="パス_7169" data-name="パス 7169" class="cls-4" d="M2260.44,836.96h-.05C2260.44,837,2260.45,837,2260.44,836.96Z" transform="translate(-830.89 5785)"/>
    <path id="パス_7171" data-name="パス 7171" class="cls-4" d="M2259.31,796.85a48.663,48.663,0,0,0-11.38-1.54c-2.76,5.49-1.41,10.05,1.5,14.39.19,0,.38-.01.58-.02.34-.01.68-.02,1.02-.04.8-.03,1.59-.07,2.39-.09a16.386,16.386,0,0,1,5.14.47,8.273,8.273,0,0,1,1.08.41c-.05-1-.09-1.98-.14-2.92-.21-3.56.18-7.16-.17-10.65Z" transform="translate(-830.89 5785)"/>
    <path id="パス_7174" data-name="パス 7174" class="cls-4" d="M2243.24,825.3c.2.08.4.16.59.24a51.411,51.411,0,0,1,11.88,6.46,21.793,21.793,0,0,1,3.32,3.04c.33.38.65.78.95,1.19a5.049,5.049,0,0,1,.46.74c.48,0,1.24-.74,1.57-.97a37.185,37.185,0,0,0,4.42-3.51,31.42,31.42,0,0,0,5.56-6.69c-3.99-.76-7.43-3.6-10.32-7.28-1.51-1.92-1.86-4.89-2.03-7.81a7.027,7.027,0,0,0-1.17-.4,16.45,16.45,0,0,0-5.04-.28c-.79.05-1.59.11-2.39.15-.34.02-.69.03-1.03.03h-.24c.65.93,1.36,1.86,2.13,2.78-.23.21-.45.4-.67.6,1.02.88,2.01,1.79,2.93,2.74a19.4,19.4,0,0,1,2.28,2.87l.21.12c.17.09.34.18.52.27s.35.18.52.27c.19.1.39.2.58.3.46.24.92.47,1.38.7a15.03,15.03,0,0,1,2.86,1.76,6.612,6.612,0,0,1,1.99,2.76c0,.02,0,.05-.02.06s-.05,0-.06-.02a6.413,6.413,0,0,0-2.09-2.57,15.083,15.083,0,0,0-2.88-1.57c-.47-.21-.95-.42-1.41-.66-.2-.1-.4-.2-.59-.32-.17-.1-.34-.21-.51-.32h0c.23.39.45.78.66,1.19a40.277,40.277,0,0,1,2.97,8.33c0,.03,0,.06-.04.06s-.06,0-.06-.04a40.106,40.106,0,0,0-3.19-8.19,22.144,22.144,0,0,0-1.49-2.35,2,2,0,0,1-.19-.22c-.01-.01-.02-.04,0-.05a17.271,17.271,0,0,0-1.43-1.67c.02.04.05.08.07.12a5.588,5.588,0,0,1,.38.87q.105.3.18.6a10.623,10.623,0,0,1,.25,1.39c.14,1.08.18,2.17.28,3.22a21.449,21.449,0,0,0,.44,2.76,21.16,21.16,0,0,0,.78,2.69c0,.02,0,.05-.02.06s-.05,0-.06-.02a21.493,21.493,0,0,1-.93-2.66,23.506,23.506,0,0,1-.58-2.77c-.14-1.04-.23-2.13-.4-3.19-.07-.45-.16-.89-.27-1.33-.05-.19-.1-.39-.15-.58-.08-.29-.17-.57-.27-.85-.07-.19-.14-.37-.22-.56-.07-.15-.14-.3-.22-.45-.84-.81-1.73-1.58-2.64-2.33-2.09,1.9-3.74,3.48-4.99,4.84.02.22.03.45.06.68a26.256,26.256,0,0,0,.6,3.26c0,.02,0,.05-.03.05s-.05,0-.05-.03a24.619,24.619,0,0,1-.75-3.25c-.03-.15-.04-.3-.06-.45-2.36,2.64-3.09,4.46-2.31,6.22Z" transform="translate(-830.89 5785)"/>
    <path id="パス_7201" data-name="パス 7201" class="cls-5" d="M2271.99,825.79c2.82-4.62,4.15-9.96,2.63-15.56-2.04-7.51-8.26-11.47-15.31-13.38.35,3.49-.03,7.09.17,10.65.05.93.09,1.92.14,2.92a7.359,7.359,0,0,1,3.08,2.69.043.043,0,0,1-.07.05,7.245,7.245,0,0,0-2.99-2.46c.17,2.92.52,5.89,2.03,7.81,2.89,3.68,6.33,6.53,10.32,7.28Z" transform="translate(-830.89 5785)"/>
  </g>
</svg>
