<svg xmlns="http://www.w3.org/2000/svg" width="45.224" height="30.808" viewBox="0 0 45.224 30.808">
  <defs>
    <style>
      .cls-1 {
        fill: #ddfeb8;
      }

      .cls-2 {
        fill: #ddfeba;
      }

      .cls-3 {
        fill: #dcfeb8;
      }
    </style>
  </defs>
  <g id="グループ_11" data-name="グループ 11" transform="translate(-981.536 -6486.588)">
    <path id="パス_7315" data-name="パス 7315" class="cls-1" d="M1823.03,707.11c3.4.2,5.75.34,8.1.48l-1.12-1.86,4.08-3.78a33.3,33.3,0,0,0-9.62,3.61c-.36.39-.82.87-1.44,1.55Z" transform="translate(-830.89 5785)"/>
    <path id="パス_7316" data-name="パス 7316" class="cls-1" d="M1834.89,713.09c.81,0,1.61.03,2.41.09v-.01c0-.02.03-.02.04-.01.04.01.09.03.13.04q.645.06,1.29.15l1-.07c.15,0,.3-.02.46-.02.33-.01.65-.02.97-.04q.735-.06,1.47-.15a24.7,24.7,0,0,1,3.72-.32,7.689,7.689,0,0,1,3.24.75c.02,0,.03.03.02.05s-.03.03-.05.02a7.55,7.55,0,0,0-3.21-.58,27.109,27.109,0,0,0-3.67.47c-.49.08-.99.16-1.49.2-.15.02-.3.03-.45.04.66.14,1.31.3,1.95.49a29.928,29.928,0,0,1,8.88,4.31c-.64-1.61-1.27-3.22-1.91-4.86,1.8-.43,3.67-.6,5.19-.84a25.416,25.416,0,0,0-5.07-6.38,17.532,17.532,0,0,0-8.01-4.39c-.27.05-.53.1-.77.16-1.98,3.35-3.95,7.12-6.14,10.9Z" transform="translate(-830.89 5785)"/>
    <path id="パス_7317" data-name="パス 7317" class="cls-1" d="M1842.62,714.56a27.864,27.864,0,0,0-3.75-.71h.01c.21.15.42.3.61.46a13.4,13.4,0,0,1,1.3,1.2,36.363,36.363,0,0,1,2.52,2.98,30.177,30.177,0,0,0,3.84,4.35.028.028,0,0,1,0,.05c-.01.02-.04.02-.06,0a29.736,29.736,0,0,1-4.02-4.21,35.343,35.343,0,0,0-2.59-2.86q-.615-.6-1.29-1.14c-.19-.15-.39-.3-.58-.45l-.6-.47a28.585,28.585,0,0,0-3.47-.08,77.4,77.4,0,0,1-5.14,7.82c-.14.19-.27.38-.4.56,1,.89,2.02,1.76,3.09,2.56a30.579,30.579,0,0,0,3.8,2.48.038.038,0,1,1-.03.07,29.834,29.834,0,0,1-3.89-2.39c-1.08-.77-2.13-1.61-3.14-2.47-1.92,3.01-1.99,6.13-1.61,9.21.83.17,1.66.33,2.49.44a45,45,0,0,0,4.67.41c-.18-.84-.39-1.76-.63-2.85,1.66.81,3.22,1.79,4.7,2.68,4.45-.58,8.09-3.06,11.73-5.52,1.06-.72,2.34-1.65,3.68-2.4q-1.095-2.775-2.2-5.57a29.663,29.663,0,0,0-9.07-4.16Z" transform="translate(-830.89 5785)"/>
    <path id="パス_7318" data-name="パス 7318" class="cls-2" d="M1834.4,732.38a27.662,27.662,0,0,0,3.87-.13,1.56,1.56,0,0,0,.21-.04c-1.48-.89-3.05-1.87-4.7-2.68.24,1.09.44,2.01.63,2.85Z" transform="translate(-830.89 5785)"/>
    <path id="パス_7319" data-name="パス 7319" class="cls-2" d="M1851.6,718.49c.15.1.3.2.44.31a.057.057,0,0,1-.07.09c-.09-.06-.19-.12-.28-.18.73,1.86,1.47,3.72,2.2,5.57a8.676,8.676,0,0,1,3.76-1.25l-1.76-6.84a8.453,8.453,0,0,0-1.01-3.41c-1.52.25-3.39.42-5.19.84.65,1.64,1.28,3.24,1.91,4.86Z" transform="translate(-830.89 5785)"/>
    <path id="パス_7329" data-name="パス 7329" class="cls-3" d="M1834.55,713.68c-.72.03-1.43.07-2.16.15a72.958,72.958,0,0,0-7.25,1.4c-.81.17-1.63.33-2.45.45-.41.06-.83.12-1.24.17a5.412,5.412,0,0,1,.67.25,5.652,5.652,0,0,1,.6.31c.19.11.38.24.56.37a36.006,36.006,0,0,1,3.66,3.37c.67.64,1.36,1.28,2.06,1.9.13-.19.25-.38.4-.56a80.989,80.989,0,0,0,5.14-7.82Z" transform="translate(-830.89 5785)"/>
    <path id="パス_7330" data-name="パス 7330" class="cls-3" d="M1831.12,707.58c-2.35-.14-4.69-.28-8.1-.48.62-.68,1.08-1.17,1.44-1.55-.94.51-1.86,1.04-2.77,1.61-2.98,1.85-7.31,4.07-8.77,7.24a13.612,13.612,0,0,0,3.2.87,16.635,16.635,0,0,0,4.05.06c.8-.07,1.61-.19,2.42-.33q.945-.165,1.89-.36c.11-.06.21-.12.32-.18.2-.11.4-.22.61-.32.18-.09.36-.19.55-.28.43-.21.85-.43,1.26-.67a11.037,11.037,0,0,0,1.2-.82,26.576,26.576,0,0,1,4.24-3.19,5.165,5.165,0,0,1,3.48-.41c.02,0,.03.02.03.05s-.02.03-.05.03a5.054,5.054,0,0,0-3.37.53,26.209,26.209,0,0,0-4.08,3.31,11.806,11.806,0,0,1-2.54,1.6,55.088,55.088,0,0,1,6.2-1.08c.86-.08,1.71-.11,2.56-.12,2.19-3.78,4.16-7.55,6.14-10.9.25-.06.51-.11.77-.16a18.711,18.711,0,0,0-7.71-.08l-4.08,3.78,1.12,1.86Z" transform="translate(-830.89 5785)"/>
    <path id="パス_7331" data-name="パス 7331" class="cls-3" d="M1828.85,722.31c-.73-.62-1.44-1.24-2.14-1.88a40.717,40.717,0,0,0-3.68-3.27l-.54-.36a6.164,6.164,0,0,0-.55-.33,7.666,7.666,0,0,0-.86-.43c-.1-.04-.2-.09-.3-.12-.19.01-.37.03-.56.04a16.215,16.215,0,0,1-4.17-.28,12.967,12.967,0,0,1-3.19-1.13,5.165,5.165,0,0,0-.43,2.25c.17,5.1,4.18,10.33,8.51,12.7,1.42.78,3.44.85,4.72,1.57-.48-.01.9.32,1.36.41.07.01.14.03.21.04-.38-3.07-.31-6.19,1.61-9.21Z" transform="translate(-830.89 5785)"/>
  </g>
</svg>
