<svg xmlns="http://www.w3.org/2000/svg" width="69.02" height="59.956" viewBox="0 0 69.02 59.956">
  <defs>
    <style>
      .cls-1 {
        fill: #e3fec1;
      }

      .cls-2 {
        fill: #e0febe;
      }

      .cls-3 {
        fill: #e3febf;
      }

      .cls-4 {
        fill: #e0febb;
      }

      .cls-5 {
        fill: #e1febc;
      }

      .cls-6 {
        fill: #dffeb9;
      }

      .cls-7 {
        fill: #defeb7;
      }
    </style>
  </defs>
  <g id="グループ_1" data-name="グループ 1" transform="translate(-236.7 -6486.774)">
    <path id="パス_7261" data-name="パス 7261" class="cls-1" d="M1111.97,710.93a18.5,18.5,0,0,0,4.74-2.3c.9-.59,2.27-.48,3.72-.24-5.52-4.48-11.98-7.33-19.81-6.46a34.525,34.525,0,0,0-9.53,2.64c5.83,3.39,11.06,7.02,16.87,6.99a11.461,11.461,0,0,1,4.02-.62Z" transform="translate(-830.89 5785)"/>
    <path id="パス_7262" data-name="パス 7262" class="cls-1" d="M1109.6,711.44a14.5,14.5,0,0,0,1.79-.35A9.776,9.776,0,0,0,1109.6,711.44Z" transform="translate(-830.89 5785)"/>
    <path id="パス_7263" data-name="パス 7263" class="cls-1" d="M1070,723c4.16-.61,8.38-3.03,12.49-5.32a15.54,15.54,0,0,1,2.61-4.14.049.049,0,1,1,.07.07,15.021,15.021,0,0,0-2.25,3.83c1.09-.6,2.16-1.19,3.23-1.73,1.17-.59,1.25-3.58,1.6-5.51.25-1.41.39-2.86.54-4.38a57.66,57.66,0,0,0-7.05,4.01,30.715,30.715,0,0,0-11.25,13.18Z" transform="translate(-830.89 5785)"/>
    <path id="パス_7273" data-name="パス 7273" class="cls-2" d="M1127.95,715.92a62.554,62.554,0,0,0-5.91-6.15c-.39.21-.78.42-1.17.62,2.31,1.88,4.75,3.66,7.08,5.52Z" transform="translate(-830.89 5785)"/>
    <path id="パス_7274" data-name="パス 7274" class="cls-3" d="M1068.28,728.22c2.63.7,6.58-3.87,10.22-5.16a9.978,9.978,0,0,1,2.51-.49,28.015,28.015,0,0,1,.9-3.41,16.038,16.038,0,0,1,.58-1.5c-4.11,2.29-8.33,4.71-12.49,5.32a28.593,28.593,0,0,0-1.72,5.23Z" transform="translate(-830.89 5785)"/>
    <path id="パス_7275" data-name="パス 7275" class="cls-3" d="M1116.7,708.64a18.347,18.347,0,0,1-4.74,2.3,4.176,4.176,0,0,1,.5.02.047.047,0,0,1,.05.05.054.054,0,0,1-.05.05,7.6,7.6,0,0,0-1.07.04,13.13,13.13,0,0,1-1.79.35c-.2.06-.39.11-.59.17a32.407,32.407,0,0,0-3.18,1.33c-.45.21-.91.42-1.36.61-.25.1-.5.2-.76.28a29.52,29.52,0,0,1,8.58.41,25.863,25.863,0,0,1,8.59-3.85c.39-.21.78-.42,1.17-.62q-.8-.72-1.62-1.38c-1.45-.24-2.82-.35-3.72.24Z" transform="translate(-830.89 5785)"/>
    <path id="パス_7276" data-name="パス 7276" class="cls-3" d="M1086.16,715.69c-1.07.54-2.14,1.13-3.23,1.73-.25.61-.48,1.23-.67,1.85a29.821,29.821,0,0,0-.75,3.27,7.9,7.9,0,0,1,3.81.73,31.639,31.639,0,0,1,6.09-5.12,28.359,28.359,0,0,1,10.38-4.07c.24-.1.48-.2.72-.31l1.75-.79c.23-.1.47-.21.7-.3.92-.39,1.85-.77,2.79-1.09.06-.02.13-.04.19-.06-5.81.03-11.04-3.6-16.87-6.99-.09.04-.17.07-.26.11-.85.36-1.69.73-2.53,1.13-.14,1.52-.29,2.96-.54,4.38-.34,1.93-.42,4.92-1.6,5.51Z" transform="translate(-830.89 5785)"/>
    <path id="パス_7277" data-name="パス 7277" class="cls-3" d="M1096.97,723.26c4.03-1.19,7.39-3.47,10.69-5.81-.59-.29-1.17-.58-1.77-.85-.43-.19-.86-.38-1.3-.56s-.87-.36-1.31-.54-.88-.34-1.32-.5c-.23-.09-.47-.17-.7-.25a27.715,27.715,0,0,0-9.46,4,31.339,31.339,0,0,0-5.78,4.96c4.09,2.85,6.85.76,10.94-.45Z" transform="translate(-830.89 5785)"/>
    <path id="パス_7278" data-name="パス 7278" class="cls-3" d="M1101.87,714.63c.09.02.17.03.26.05.21.04.42.09.63.14.28.07.56.15.83.24.41.13.82.28,1.22.44.37.15.74.32,1.11.49.74.35,1.47.74,2.19,1.14,1.23-.88,2.46-1.75,3.71-2.58a28.572,28.572,0,0,0-9.95.08Z" transform="translate(-830.89 5785)"/>
    <path id="パス_7289" data-name="パス 7289" class="cls-4" d="M1080.38,729.66c-.05.21-.09.43-.15.64.16-.28.33-.56.5-.84-.11,0-.21.03-.32.04-.01.05-.02.11-.03.16Z" transform="translate(-830.89 5785)"/>
    <path id="パス_7290" data-name="パス 7290" class="cls-4" d="M1127.7,722.13c-4.05-2.31-10.22-1.46-15.36-.97-1.35.13-2.93,3.99-3.35,6.33-.91,5.11-11.95,8.72-18.31,5.74-1.02-.48-2.03-1.02-3.05-1.54-.73.18-1.45.36-2.16.57a21.452,21.452,0,0,0-2.13.75c-.46.19-.92.4-1.36.62a13.025,13.025,0,0,0-1.6.96,11.815,11.815,0,0,0-.98.77c-.27.24-.54.5-.79.77-.09.26-.18.52-.27.79,5.53-2.72,9.63-.63,13.28,6.6l.08-.08c11.14-10.72,27.4-17.37,42.72-13.4-1.97-3.15-3.89-6.28-6.72-7.9Z" transform="translate(-830.89 5785)"/>
    <path id="パス_7291" data-name="パス 7291" class="cls-4" d="M1078.96,735.19l.15-.15a10.042,10.042,0,0,1,.97-.87,10.443,10.443,0,0,1,1.64-1.06c.45-.24.93-.45,1.41-.65a20.156,20.156,0,0,1,2.2-.71c.54-.14,1.08-.27,1.63-.39a17.674,17.674,0,0,0-5.22-1.86,38.032,38.032,0,0,0-2.78,5.7Z" transform="translate(-830.89 5785)"/>
    <path id="パス_7292" data-name="パス 7292" class="cls-4" d="M1069.02,732.61c-.46-.16-.9-.3-1.34-.41a29.685,29.685,0,0,0,1.5,11.85c1.14-.93,2.21-2.05,3.34-3.04a30.765,30.765,0,0,1,4.64-3.47c.08-.25.14-.52.22-.77a37.632,37.632,0,0,1,2.06-4.99c.05-.24.1-.49.14-.73.09-.49.17-.97.25-1.46-1.83.37-3.75,1.42-5.62,1.94-1.73.48-3.79,1.6-5.21,1.09Z" transform="translate(-830.89 5785)"/>
    <path id="パス_7293" data-name="パス 7293" class="cls-5" d="M1112.28,714.25a.267.267,0,0,1,.1.02,31.64,31.64,0,0,1,5.87,1.78,34.468,34.468,0,0,1,5.44,2.81.079.079,0,0,1-.09.13,34.232,34.232,0,0,0-5.46-2.7,31.934,31.934,0,0,0-5.84-1.67c-.16-.03-.33-.05-.49-.08-1.25.83-2.48,1.7-3.71,2.58.1.06.2.11.3.16,1.76.99,3.48,2.05,5.2,2.98a.051.051,0,0,1-.05.09c-1.52-.7-3.06-1.5-4.6-2.28-.43-.22-.87-.41-1.31-.62-3.3,2.34-6.66,4.62-10.69,5.81-4.09,1.21-6.86,3.3-10.94.45a35.062,35.062,0,0,0-4,5.28c-.1.16-.19.33-.29.5a17.673,17.673,0,0,1,5.22,1.86c1.31-.29,2.66-.53,3.98-.8.6-.12,1.19-.27,1.78-.43,1.38-.39,2.73-.85,4.1-1.25.03,0,.05,0,.06.03s0,.05-.03.06c-1.36.45-2.69.97-4.05,1.41-.59.19-1.18.36-1.78.51-1.13.27-2.26.53-3.38.81,1.02.52,2.04,1.06,3.05,1.54,6.36,2.98,17.4-.62,18.31-5.74.42-2.34,2-6.2,3.35-6.33,5.14-.49,11.31-1.34,15.36.97,2.83,1.61,4.75,4.75,6.72,7.9.74.19,1.47.4,2.2.64l-2.16-6.37c-2.03-2.77-4.18-5.64-6.5-8.38-2.33-1.86-4.77-3.64-7.08-5.52a25.774,25.774,0,0,0-8.59,3.85Z" transform="translate(-830.89 5785)"/>
    <path id="パス_7294" data-name="パス 7294" class="cls-5" d="M1068.28,728.22a27.944,27.944,0,0,0-.59,3.97c.44.12.88.25,1.34.41,1.43.51,3.48-.61,5.21-1.09,1.87-.52,3.79-1.57,5.62-1.94v-.02c.08-.49.15-.99.23-1.49.14-.9.28-1.79.42-2.69.15-.94.32-1.88.51-2.81a9.978,9.978,0,0,0-2.51.49c-3.64,1.29-7.59,5.85-10.22,5.16Z" transform="translate(-830.89 5785)"/>
    <path id="パス_7295" data-name="パス 7295" class="cls-5" d="M1081.51,722.55c-.17.97-.31,1.94-.45,2.92-.13.9-.25,1.8-.4,2.69-.08.45-.16.89-.26,1.33.11-.01.21-.03.32-.04.18-.31.36-.63.55-.93a35.174,35.174,0,0,1,4.05-5.24,7.785,7.785,0,0,0-3.81-.73Z" transform="translate(-830.89 5785)"/>
    <path id="パス_7305" data-name="パス 7305" class="cls-6" d="M1078.34,736.91a.878.878,0,0,0-.05.15c-.42,1.28-.75,2.58-1.04,3.89,1.47-.82,3.5-1.21,5.12-1.91.59,2.8,1.35,5.57,1.68,8.4.14,1.2-.61,2.51-1.11,4.35.84.05,1.65.1,2.46.15a33.869,33.869,0,0,1,6.23-8.42c-3.65-7.23-7.75-9.33-13.28-6.6Z" transform="translate(-830.89 5785)"/>
    <path id="パス_7306" data-name="パス 7306" class="cls-6" d="M1069.19,744.05a31.048,31.048,0,0,0,1.96,4.59c1.53-2.23,3.13-4.47,4.82-6.64.05-.06.11-.11.16-.17a36.917,36.917,0,0,1,1.05-4.3,30.282,30.282,0,0,0-4.64,3.47c-1.13,1-2.2,2.11-3.34,3.04Z" transform="translate(-830.89 5785)"/>
    <path id="パス_7313" data-name="パス 7313" class="cls-7" d="M1071.14,748.64a35.016,35.016,0,0,0,2.5,4.09c.81,1.14,1.93,2.9,3.2,4.57-.24-.84-.45-1.68-.62-2.53a34.131,34.131,0,0,1-.58-9.07,36.092,36.092,0,0,1,.43-3.62c.01-.08.04-.16.05-.24-.05.06-.12.11-.16.17-1.69,2.17-3.28,4.41-4.82,6.64Z" transform="translate(-830.89 5785)"/>
    <path id="パス_7314" data-name="パス 7314" class="cls-7" d="M1084.05,747.44c-.33-2.83-1.1-5.6-1.68-8.4-1.62.71-3.65,1.09-5.12,1.91-.09.43-.2.85-.28,1.28-.21,1.17-.38,2.35-.48,3.53a35.387,35.387,0,0,0,.31,8.9,33.272,33.272,0,0,0,.76,3.54,11.177,11.177,0,0,0,4.15,3.53c.03-1.94,1.01-4.06,1.77-5.84.58-1.36,1.22-2.68,1.91-3.97-.81-.05-1.62-.1-2.46-.15.5-1.84,1.26-3.15,1.11-4.35Z" transform="translate(-830.89 5785)"/>
  </g>
</svg>
