<svg xmlns="http://www.w3.org/2000/svg" width="65.804" height="44.782" viewBox="0 0 65.804 44.782">
  <defs>
    <style>
      .cls-1 {
        fill: #ecffd6;
      }

      .cls-2 {
        fill: #ebffd3;
      }

      .cls-3 {
        fill: #e9ffd1;
      }

      .cls-4 {
        fill: #ecffd8;
      }

      .cls-5 {
        fill: #e9ffcf;
      }

      .cls-6, .cls-9 {
        fill: none;
        stroke-linecap: round;
        stroke-linejoin: round;
      }

      .cls-6 {
        stroke: #e9ffd1;
      }

      .cls-7 {
        fill: #e8ffce;
      }

      .cls-8 {
        fill: #e7ffcd;
      }

      .cls-9 {
        stroke: #e8ffce;
      }

      .cls-10 {
        fill: #e5ffc9;
      }

      .cls-11 {
        fill: #e7ffcb;
      }

      .cls-12 {
        fill: #e4ffc8;
      }
    </style>
  </defs>
  <g id="グループ_9" data-name="グループ 9" transform="translate(-719.983 -6479.764)">
    <path id="パス_7199" data-name="パス 7199" class="cls-1" d="M1576.8,701.25a27.768,27.768,0,0,1,4.86-6.24,25.612,25.612,0,0,0-9.58.45c-4.59,5.19-9.22,10.43-14.06,15.9a50.555,50.555,0,0,1-1.92,6.38,22.513,22.513,0,0,1-2.25,3.99c1.72.96,3.56,1.98,5.62,3.14,5.63-6.87,3.73-21.45,17.33-23.61Z" transform="translate(-830.89 5785)"/>
    <path id="パス_7214" data-name="パス 7214" class="cls-2" d="M1565.63,719.77s.07-.01.11-.02v-.08a.941.941,0,0,1-.1.1Z" transform="translate(-830.89 5785)"/>
    <path id="パス_7215" data-name="パス 7215" class="cls-2" d="M1559.46,724.85l-5.62-3.14a23.782,23.782,0,0,0-2.27,4.05c.95.69,1.89,1.37,2.83,2.06.86.74,1.72,1.48,2.61,2.24.67-1.14,1.36-2.26,2.08-3.37a60.2,60.2,0,0,1,3.54-4.92,44.757,44.757,0,0,1,3.06-3.39v-.25c.7-.98,1.39-1.96,2.09-2.94-2.38-4.64,1.38-4.92,4.18-5.88l.27-.15a19.761,19.761,0,0,1,3.36-3.48c.27-.21.55-.41.83-.61.13-1.28.25-2.56.38-3.84-13.6,2.15-11.7,16.74-17.33,23.61Zm8.32-9.65c-.7.98-1.39,1.96-2.09,2.94C1566.39,717.16,1567.08,716.18,1567.78,715.2Z" transform="translate(-830.89 5785)"/>
    <path id="パス_7216" data-name="パス 7216" class="cls-2" d="M1576.38,705.52c-.19.15-.38.29-.56.44a20.082,20.082,0,0,0-2.5,2.63c.97-.52,1.94-1.03,2.91-1.55C1576.28,706.53,1576.33,706.03,1576.38,705.52Z" transform="translate(-830.89 5785)"/>
    <path id="パス_7217" data-name="パス 7217" class="cls-2" d="M1563.8,728.3c.22-.73.44-1.46.66-2.18s.44-1.46.66-2.18.44-1.46.66-2.18c-.01-.5-.03-1.01-.04-1.51l-.58.03c-.62.68-1.23,1.38-1.82,2.1-1.26,1.53-2.46,3.13-3.61,4.78-.77,1.1-1.51,2.22-2.25,3.34,2.01,1.72,4.23,3.64,7.11,6.11,2.08-1.48.89-4.83-.8-8.29Z" transform="translate(-830.89 5785)"/>
    <path id="パス_7218" data-name="パス 7218" class="cls-3" d="M1592.35,698.26c.23-.09.44-.2.66-.31a51.919,51.919,0,0,0-11.36-2.95,28,28,0,0,0-4.86,6.24c-.13,1.28-.25,2.56-.38,3.84a15.072,15.072,0,0,1,4.86-2.34c.03,0,.05,0,.06.03s0,.05-.03.06a15.077,15.077,0,0,0-4.93,2.68c-.05.51-.1,1.01-.15,1.52,5.31-2.99,10.09-6.49,16.12-8.77Z" transform="translate(-830.89 5785)"/>
    <path id="パス_7219" data-name="パス 7219" class="cls-4" d="M1563.82,699.92c-3.7,3.38-4.76,7.3-5.81,11.43,4.83-5.47,9.47-10.71,14.06-15.9a19.032,19.032,0,0,0-8.25,4.46Z" transform="translate(-830.89 5785)"/>
    <path id="パス_7232" data-name="パス 7232" class="cls-5" d="M1570.44,733.9c.92-1.71,1.83-3.42,2.75-5.13-.5-1.08-.99-2.17-1.49-3.25l.9-.87c1.14.87,2.29,1.74,3.43,2.61-.04-1.62-.09-3.24-.13-4.86h-.02c-2.23-.6-4.55-1.56-6.89-1.97a14,14,0,0,0-2.23-.2h-1.02c.01.51.03,1.02.04,1.52-.22.73-.44,1.46-.66,2.18s-.44,1.46-.66,2.18-.44,1.46-.66,2.18c1.69,3.46,2.88,6.81.8,8.29-2.87-2.47-5.1-4.39-7.11-6.11-.14.22-.29.43-.44.65-.39.6-.76,1.19-1.15,1.79a41.662,41.662,0,0,1,4,5.69,76.7,76.7,0,0,0,12.08.94l-1.44-2.04c-.03-1.2-.06-2.4-.1-3.61Z" transform="translate(-830.89 5785)"/>
    <path id="パス_7233" data-name="パス 7233" class="cls-5" d="M1554.39,728.59l-.41-.12.42-.64c-.94-.68-1.88-1.37-2.83-2.06a10.1,10.1,0,0,0-.49,1.53,7.309,7.309,0,0,0-.16,1.01,25.512,25.512,0,0,1,4.66,4.24c.32-.58.64-1.15.98-1.73.15-.25.3-.5.45-.76-.89-.77-1.76-1.51-2.61-2.24v.76Z" transform="translate(-830.89 5785)"/>
    <path id="パス_7234" data-name="パス 7234" class="cls-5" d="M1570.91,712.37c-.1.21-.21.41-.31.62s-.2.4-.31.59c-.16.3-.32.59-.5.88-.14.23-.28.46-.44.68a30.263,30.263,0,0,1,4.27-2.71c-.3-.57-.6-1.13-.91-1.7-.6.54-1.2,1.09-1.8,1.63Z" transform="translate(-830.89 5785)"/>
    <path id="パス_7235" data-name="パス 7235" class="cls-5" d="M1574.01,713.17a32.2,32.2,0,0,0-6.61,4.82c-.57.54-1.13,1.1-1.67,1.67v.08a.7.7,0,0,0,.14-.03c.1-.02.19-.03.29-.05a5.862,5.862,0,0,1,.59-.05,11.017,11.017,0,0,1,2.35.23,69.438,69.438,0,0,1,6.79,2.1c-.05-1.84-.1-3.67-.15-5.51-.58-1.09-1.16-2.17-1.74-3.26Z" transform="translate(-830.89 5785)"/>
    <path id="パス_7236" data-name="パス 7236" class="cls-5" d="M1565.69,718.14v.25c.36-.36.7-.73,1.07-1.08.57-.53,1.15-1.04,1.75-1.52.07-.11.13-.23.2-.35.13-.24.26-.49.38-.73s.24-.49.36-.74c.08-.18.17-.35.25-.53-.65.59-1.3,1.17-1.94,1.76-.7.98-1.39,1.96-2.09,2.94Z" transform="translate(-830.89 5785)"/>
    <path id="パス_7237" data-name="パス 7237" class="cls-3" d="M1572.31,709.97c-.18.28-.37.55-.54.83-.31.51-.59,1.04-.85,1.56.6-.54,1.2-1.09,1.8-1.63C1572.58,710.48,1572.45,710.22,1572.31,709.97Z" transform="translate(-830.89 5785)"/>
    <path id="パス_7238" data-name="パス 7238" class="cls-3" d="M1567.78,715.2c.65-.59,1.3-1.17,1.94-1.76.07-.16.15-.31.22-.47.16-.33.33-.67.5-1q.39-.75.84-1.47c.23-.36.49-.71.74-1.06-.02-.05-.05-.09-.07-.14-2.79.97-6.55,1.25-4.18,5.88Z" transform="translate(-830.89 5785)"/>
    <path id="パス_7239" data-name="パス 7239" class="cls-6" d="M1565.69,718.14c.7-.98,1.39-1.96,2.09-2.94" transform="translate(-830.89 5785)"/>
    <path id="パス_7240" data-name="パス 7240" class="cls-6" d="M1565.79,721.75c-.22.73-.44,1.46-.66,2.18" transform="translate(-830.89 5785)"/>
    <path id="パス_7241" data-name="パス 7241" class="cls-6" d="M1564.46,726.11c-.22.73-.44,1.46-.66,2.18" transform="translate(-830.89 5785)"/>
    <path id="パス_7242" data-name="パス 7242" class="cls-7" d="M1592.35,698.26c-6.03,2.29-10.81,5.78-16.12,8.77-.97.52-1.94,1.03-2.91,1.55-.36.45-.69.91-1.01,1.39.14.25.27.51.41.76.3.57.6,1.13.91,1.7a28.569,28.569,0,0,1,7.38-2.64,36.466,36.466,0,0,1,5.48-.68h.02a46.558,46.558,0,0,0,5.09-2.24,26.8,26.8,0,0,0,6.66-4.95c.4-.44.78-.89,1.17-1.34-2.03-.9-4.18-1.8-6.42-2.62-.22.11-.43.22-.66.31Z" transform="translate(-830.89 5785)"/>
    <path id="パス_7243" data-name="パス 7243" class="cls-7" d="M1572.03,709.45c.07-.09.13-.19.2-.28l-.27.15c.02.05.05.09.07.14Z" transform="translate(-830.89 5785)"/>
    <path id="パス_7244" data-name="パス 7244" class="cls-7" d="M1582.96,711.08c-.05-.31.62-.7,1.63-1.16a33.784,33.784,0,0,0-3.44.57,27.425,27.425,0,0,0-7.14,2.69c.58,1.09,1.16,2.17,1.74,3.26,2.26-1.76,8.39,1.93,7.2-5.35Z" transform="translate(-830.89 5785)"/>
    <path id="パス_7252" data-name="パス 7252" class="cls-8" d="M1592.99,715.75a28.769,28.769,0,0,0,2.61-2.09,33.97,33.97,0,0,1-4.07-1.54l-1.74-.75c-.39-.16-.77-.32-1.16-.49-.26-.11-.51-.22-.77-.33s-.52-.21-.78-.32c-.37-.15-.73-.29-1.1-.42l-.12-.04c-.42.04-.84.1-1.26.15-1.01.46-1.68.86-1.63,1.16,1.19,7.28-4.95,3.59-7.2,5.35.05,1.84.1,3.67.15,5.51.03.01.07.02.11.03a20.8,20.8,0,0,0,6.02.91,17.237,17.237,0,0,0,5.68-1.01,15.736,15.736,0,0,1,5.28-6.12Z" transform="translate(-830.89 5785)"/>
    <path id="パス_7253" data-name="パス 7253" class="cls-8" d="M1591.6,706.87a45.511,45.511,0,0,1-5.09,2.24c1.31-.07,2.62-.09,3.93-.07l.95-.48c.19-.1.39-.2.58-.29.29-.14.59-.28.88-.42.44-.21.88-.42,1.33-.64a24.529,24.529,0,0,1,3.43-1.41,9.283,9.283,0,0,1,3.75-.43.05.05,0,1,1,0,.1,9.2,9.2,0,0,0-3.64.64,28.317,28.317,0,0,0-3.3,1.57c-.43.23-.87.47-1.31.69-.3.15-.59.3-.89.43a6.616,6.616,0,0,1-.62.24h-.04c2.75.07,5.5.22,8.24.22,1.67-1.99,3.24-4.12,4.78-6.29-1.55-.75-3.11-1.49-4.69-2.19-.15-.07-.31-.14-.47-.21-.39.44-.77.9-1.17,1.34a26.372,26.372,0,0,1-6.66,4.95Z" transform="translate(-830.89 5785)"/>
    <path id="パス_7254" data-name="パス 7254" class="cls-8" d="M1550.92,728.31a12.555,12.555,0,0,0,1.24,6.32,18.207,18.207,0,0,0,1.1,2.1c.76-1.39,1.53-2.79,2.31-4.18a25.508,25.508,0,0,0-4.66-4.24Z" transform="translate(-830.89 5785)"/>
    <path id="パス_7255" data-name="パス 7255" class="cls-8" d="M1599.53,709.6c-4.31.07-8.63-.2-12.91.11.2.04.4.08.59.12.28.07.55.14.83.23s.54.18.81.28c.4.15.79.32,1.18.49.58.26,1.15.53,1.72.81a34.8,34.8,0,0,0,4.15,1.75A42.076,42.076,0,0,0,1599.53,709.6Z" transform="translate(-830.89 5785)"/>
    <path id="パス_7256" data-name="パス 7256" class="cls-8" d="M1553.39,736.83c.37.3.73.6,1.08.91,1.75.29,3.57.59,5.43.86a41.662,41.662,0,0,0-4-5.69c-.84,1.31-1.69,2.62-2.51,3.92Z" transform="translate(-830.89 5785)"/>
    <path id="パス_7257" data-name="パス 7257" class="cls-8" d="M1582.03,723.15a21.279,21.279,0,0,1-6.12-.77c.04,1.62.09,3.24.13,4.86-.95.51-1.9,1.01-2.85,1.52-.92,1.71-1.83,3.42-2.75,5.13.03,1.2.06,2.4.1,3.61l1.44,2.04a32.806,32.806,0,0,0,12.42-2.33c1.33-4.92.96-10.36,3.24-15.21a17.211,17.211,0,0,1-5.61,1.14Z" transform="translate(-830.89 5785)"/>
    <path id="パス_7258" data-name="パス 7258" class="cls-7" d="M1571.71,725.52c.5,1.08.99,2.17,1.49,3.25.95-.51,1.9-1.01,2.85-1.52-1.14-.87-2.29-1.74-3.43-2.61l-.9.87Z" transform="translate(-830.89 5785)"/>
    <path id="パス_7259" data-name="パス 7259" class="cls-9" d="M1570.44,733.9c.03,1.2.06,2.4.1,3.61" transform="translate(-830.89 5785)"/>
    <path id="パス_7260" data-name="パス 7260" class="cls-2" d="M1554.39,728.59l.01-.77-.42.64Z" transform="translate(-830.89 5785)"/>
    <path id="パス_7271" data-name="パス 7271" class="cls-10" d="M1608.35,708.55s.08.02.09.06a.088.088,0,0,1-.06.09,43.448,43.448,0,0,1-8.86.89,42.076,42.076,0,0,1-3.63,3.79c.07.02.13.05.2.07a12.186,12.186,0,0,0,4.74.59.045.045,0,1,1,.01.09,12.167,12.167,0,0,1-4.84-.37l-.41-.12a27.447,27.447,0,0,1-2.61,2.09,15.736,15.736,0,0,0-5.28,6.12c.1-.04.21-.06.31-.1a.045.045,0,0,1,.06.03.042.042,0,0,1-.03.06c-.14.06-.28.1-.41.15-2.28,4.84-1.91,10.29-3.24,15.21a23.1,23.1,0,0,0,3.32-1.7,22.36,22.36,0,0,0,3.27-2.54c.23-2.53.45-4.95.64-7.15,5.49-5.16,10.02-9.41,14.54-13.67.31-.29.52-1.08.71-1.06,3.93.4,6.15-.28,7.42-1.57l-3.48-3.49c-.09-.48-2.39-1.22-2.74-1.38-1.17-.56-2.33-1.12-3.49-1.68-1.54,2.17-3.11,4.3-4.78,6.29a43.137,43.137,0,0,0,8.54-.71Z" transform="translate(-830.89 5785)"/>
    <path id="パス_7272" data-name="パス 7272" class="cls-11" d="M1553.37,736.86c.29.32.9.73.57.79.17.03.35.06.53.09-.35-.31-.71-.61-1.08-.91a.144.144,0,0,1-.02.03Z" transform="translate(-830.89 5785)"/>
    <path id="パス_7288" data-name="パス 7288" class="cls-12" d="M1606.88,711.1c-.2-.02-.4.77-.71,1.06-4.51,4.27-9.04,8.51-14.54,13.67-.2,2.2-.42,4.61-.64,7.15,2.78-2.58,5.05-5.75,7.44-8.65a37.675,37.675,0,0,1,11.54-9.46c1.42-.76,2.89-1.45,4.36-2.12.73-.33,2.97-1.15,2.18-.99l-2.22-2.23c-1.27,1.28-3.49,1.97-7.42,1.57Z" transform="translate(-830.89 5785)"/>
  </g>
</svg>
