<svg xmlns="http://www.w3.org/2000/svg" width="28.603" height="23.302" viewBox="0 0 28.603 23.302">
  <defs>
    <style>
      .cls-1 {
        fill: #ebffd0;
      }

      .cls-2 {
        fill: #edffd1;
      }

      .cls-3 {
        fill: #ebffce;
      }

      .cls-4 {
        fill: #e8ffc9;
      }

      .cls-5 {
        fill: #e7fec7;
      }
    </style>
  </defs>
  <g id="グループ_2" data-name="グループ 2" transform="translate(-129.618 -6538.598)">
    <path id="パス_7210" data-name="パス 7210" class="cls-1" d="M967.94,771.56c-.16.04-.32.09-.48.13-.32.08-.64.15-.97.2s-.65.09-.98.11-.65.02-.99.01a3.92,3.92,0,0,1-.59-.05c-.02.03-.03.05-.05.08a9.145,9.145,0,0,0-.2,4.56.425.425,0,0,0,.02.11l3.72-.55c.25-1.52.41-3.06.52-4.61Z" transform="translate(-830.89 5785)"/>
    <path id="パス_7211" data-name="パス 7211" class="cls-1" d="M967.27,768.09a25.472,25.472,0,0,0-1.9,2c-.48.56-.93,1.15-1.35,1.75.17-.01.34-.02.51-.04.32-.03.64-.06.96-.11s.64-.09.95-.15.63-.11.95-.18c.19-.04.38-.09.57-.14.09-1.3.15-2.62.19-3.93-.3.26-.6.52-.88.78Z" transform="translate(-830.89 5785)"/>
    <path id="パス_7212" data-name="パス 7212" class="cls-1" d="M967.65,762.78h.03v.04a.266.266,0,0,0-.06.05c-.98,2.37-2.21,4.79-3.07,7.13.1-.12.18-.25.28-.37a20.169,20.169,0,0,1,1.98-2.05c.44-.4.91-.79,1.38-1.16.07-1.94.13-3.88.27-5.8-.23.71-.51,1.43-.81,2.16Z" transform="translate(-830.89 5785)"/>
    <path id="パス_7220" data-name="パス 7220" class="cls-2" d="M965.02,765.97a11.925,11.925,0,0,0-.79,2.5c-.05.22-.09.44-.14.66-.03.15-.06.3-.08.44-.03.17-.06.33-.09.5l-.12.75-.03.21c.24-.36.51-.69.77-1.03.86-2.33,2.09-4.76,3.07-7.13a6.843,6.843,0,0,0-2.59,3.1Z" transform="translate(-830.89 5785)"/>
    <path id="パス_7221" data-name="パス 7221" class="cls-2" d="M971.41,754.25a13.588,13.588,0,0,0-3.47,1.45,14.139,14.139,0,0,0-3.5,3.73c-2.88,3.8-4.68,8.68-3.63,13.48a14.809,14.809,0,0,0,.81,2.81,11.32,11.32,0,0,1,.36-1.17,15.178,15.178,0,0,1,1.2-2.58c.12-.21.25-.42.38-.62a5.143,5.143,0,0,1,.02-.55c.01-.25.03-.51.06-.76l.06-.51c.02-.15.04-.3.07-.45.04-.23.09-.45.14-.68a12.047,12.047,0,0,1,.89-2.53,6.894,6.894,0,0,1,2.85-3.08h0c.3-.73.58-1.45.81-2.16,1.05-2.07,1.97-4.24,2.95-6.37Z" transform="translate(-830.89 5785)"/>
    <path id="パス_7222" data-name="パス 7222" class="cls-2" d="M963.89,772.04c-.06.09-.12.17-.17.26a20.963,20.963,0,0,0-1.35,2.41c-.21.44-.4.9-.58,1.37a2.187,2.187,0,0,0,.69.82l1.23-.18s-.01-.07-.02-.11a9.145,9.145,0,0,1,.2-4.56Z" transform="translate(-830.89 5785)"/>
    <path id="パス_7223" data-name="パス 7223" class="cls-3" d="M979.45,753.75a21.933,21.933,0,0,0-8.04.51c-.98,2.12-1.9,4.3-2.95,6.37-.14,1.92-.2,3.86-.27,5.8a29.55,29.55,0,0,1,4.19-2.73c.32-.18.65-.34.98-.51a22.122,22.122,0,0,1,3.04-4.48,24.128,24.128,0,0,0,3.05-4.95Z" transform="translate(-830.89 5785)"/>
    <path id="パス_7224" data-name="パス 7224" class="cls-3" d="M967.67,776.13a19.337,19.337,0,0,0,3.37-1.13,25.315,25.315,0,0,1,.11-4.54c-.48.19-.96.38-1.44.55-.59.21-1.18.39-1.77.55-.11,1.55-.27,3.09-.52,4.61l.24-.04Z" transform="translate(-830.89 5785)"/>
    <path id="パス_7225" data-name="パス 7225" class="cls-3" d="M972.68,764.6c-.22-.03-.44-.07-.65-.12a31.162,31.162,0,0,0-3.87,2.82c-.05,1.31-.11,2.63-.19,3.93.56-.14,1.12-.28,1.68-.45.51-.16,1.02-.33,1.53-.5a21.17,21.17,0,0,1,1.52-5.68h-.01Z" transform="translate(-830.89 5785)"/>
    <path id="パス_7226" data-name="パス 7226" class="cls-3" d="M972.62,764.12c-.13.08-.26.16-.39.23h.42s.09.01.13.02c.06-.15.13-.3.19-.45-.12.07-.24.13-.36.2Z" transform="translate(-830.89 5785)"/>
    <path id="パス_7227" data-name="パス 7227" class="cls-4" d="M971.04,775a29.1,29.1,0,0,0,6.57-4.1c1.64-4.13,4.48-8.01,6.54-12.02a22.272,22.272,0,0,1,2.09-3.42,25.529,25.529,0,0,0-6.79-1.71,23.6,23.6,0,0,1-3.05,4.95,21.722,21.722,0,0,0-3.04,4.48c.13-.07.25-.14.38-.2.11-.15.22-.31.34-.45.16-.2.32-.38.49-.57s.35-.36.53-.52.37-.33.56-.49c.46-.38.94-.73,1.43-1.07.73-.51,1.48-.98,2.25-1.44h.04v.04c-.81.57-1.6,1.15-2.37,1.77q-.72.585-1.41,1.2l-1.55,1.38a50.308,50.308,0,0,1,7.73-2.95.063.063,0,0,1,.08.04c0,.03,0,.07-.04.07a48.245,48.245,0,0,0-8.81,3.93c-.07.15-.13.3-.19.45h1.86a16.26,16.26,0,0,0,2.2-.15,12.734,12.734,0,0,0,3.38-.92.029.029,0,1,1,.03.05,12.228,12.228,0,0,1-2.49.93,14.594,14.594,0,0,1-1.75.33c-.44.05-.89.09-1.33.1-.3,0-.59,0-.89-.01-.15,0-.3-.02-.44-.03-.22-.02-.44-.05-.65-.08a22.046,22.046,0,0,0-1.52,5.68c.6-.2,1.2-.41,1.8-.61a.032.032,0,1,1,.02.06c-.61.24-1.22.49-1.84.74a25.285,25.285,0,0,0-.11,4.54Z" transform="translate(-830.89 5785)"/>
    <path id="パス_7245" data-name="パス 7245" class="cls-5" d="M977.61,770.9a80.408,80.408,0,0,0,6.65-6.18A19.564,19.564,0,0,0,988,759.7c.31-.62.58-1.26.83-1.91.06-.16.3-.9.28-.86a18.493,18.493,0,0,0-2.88-1.47,23.62,23.62,0,0,0-2.09,3.42c-2.06,4.01-4.91,7.9-6.54,12.02Z" transform="translate(-830.89 5785)"/>
  </g>
</svg>
