<svg xmlns="http://www.w3.org/2000/svg" width="72.251" height="54.84" viewBox="0 0 72.251 54.84">
  <defs>
    <style>
      .cls-1 {
        fill: none;
      }

      .cls-2 {
        fill: #f4ffde;
      }

      .cls-3 {
        fill: #f5ffdf;
      }

      .cls-4 {
        fill: #f3ffdc;
      }
    </style>
  </defs>
  <g id="グループ_3" data-name="グループ 3" transform="translate(58.601 -6727.299)">
    <path id="パス_7125" data-name="パス 7125" class="cls-1" d="M809.43,949.15h0c-.05-.46.07-1.12-.18-1.32.25.2.13.86.17,1.32Z" transform="translate(-830.89 5785)"/>
    <path id="パス_7126" data-name="パス 7126" class="cls-1" d="M808.18,949a.479.479,0,0,1-.17-.1A.424.424,0,0,0,808.18,949Z" transform="translate(-830.89 5785)"/>
    <path id="パス_7130" data-name="パス 7130" class="cls-1" d="M802.96,943.99h0c-.39.51-.8,1.02-1.21,1.52C802.16,945.01,802.56,944.5,802.96,943.99Z" transform="translate(-830.89 5785)"/>
    <path id="パス_7133" data-name="パス 7133" class="cls-1" d="M808.34,947.54c-.06-.23-.15-.5-.26-.8-1.71-.92-3.42-1.83-5.13-2.75a18.991,18.991,0,0,1,4.81,3.46c.19.04.38.06.58.09Z" transform="translate(-830.89 5785)"/>
    <path id="パス_7175" data-name="パス 7175" class="cls-2" d="M815.85,955.55c.47,0,.94.02,1.41.04-.07-.13-.13-.26-.2-.39-.4.12-.8.24-1.21.35Z" transform="translate(-830.89 5785)"/>
    <path id="パス_7176" data-name="パス 7176" class="cls-2" d="M797.96,954.17a10.218,10.218,0,0,0,.01-1.11,19.52,19.52,0,0,0-3.19,2.82,20.283,20.283,0,0,0-3.63,5.73c-.27.63-.5,1.26-.72,1.9-.15.43-.29.86-.43,1.3-.18.54-.36,1.09-.56,1.63s-.4,1.08-.63,1.61l-.03.06a45.664,45.664,0,0,1,7.7-6.33,39.6,39.6,0,0,1,9.22-4.44c-1.43-1.13-2.98-2.35-5.09-4.02-.3.1-1.48.47-2.66.85Z" transform="translate(-830.89 5785)"/>
    <path id="パス_7177" data-name="パス 7177" class="cls-2" d="M808.09,946.75c.11.3.19.57.26.8a1.958,1.958,0,0,1,.91.29c.25.2.13.87.18,1.32h0a5.267,5.267,0,0,1-1.25-.16.425.425,0,0,1-.17-.1c-.29-.3-.21-.96-.3-1.46h.06a18.994,18.994,0,0,0-4.81-3.46q1.815,6.525,3.63,13.06a37.208,37.208,0,0,1,6-1.3l.07-.02c.29-.09.57-.18.86-.27s.58-.17.87-.24c.52-.13,1.05-.25,1.57-.38.28-.07.55-.13.82-.2a44.3,44.3,0,0,0-3.9-6.86c-.74-.99-3.15-.73-4.79-1.04Z" transform="translate(-830.89 5785)"/>
    <path id="パス_7178" data-name="パス 7178" class="cls-2" d="M818.06,956.26c-.12.07-.23.12-.36.19a2.26,2.26,0,0,1-.11-.22c-.11,0-.21-.02-.32-.02a24.806,24.806,0,0,0-4.21.21c-.75.1-1.48.23-2.21.38.38.05.75.1,1.13.17a13.2,13.2,0,0,1,1.35.32,10.988,10.988,0,0,1,1.1.38,11.434,11.434,0,0,1,1.06.51c.87.51,1.69,1.06,2.49,1.62a37.955,37.955,0,0,0,3.69,2.39,12.03,12.03,0,0,0,3.19,1.17c.27-1.78.59-3.86.95-6.21-2.57-.35-5.15-.75-7.74-.89Z" transform="translate(-830.89 5785)"/>
    <path id="パス_7179" data-name="パス 7179" class="cls-2" d="M777.4,997.13Z" transform="translate(-830.89 5785)"/>
    <path id="パス_7180" data-name="パス 7180" class="cls-2" d="M819.05,955.74c2.29.23,4.56.64,6.82,1.01.24-1.58.5-3.26.77-5.06-2.28,1.22-4.39,2.34-7.6,4.05Z" transform="translate(-830.89 5785)"/>
    <path id="パス_7181" data-name="パス 7181" class="cls-2" d="M798.33,950.2a37.668,37.668,0,0,1,3.43-4.68c.41-.5.81-1.01,1.21-1.52-.57-.44-1.14-.88-1.74-1.34a31.175,31.175,0,0,0-14.36,5.77,31.675,31.675,0,0,0-5.45,5.21,27.833,27.833,0,0,1,2.37,4.6c1.91,5.35.12,9.24-5.26,11.68-2.43,1.1-4.8,2.34-5.78,4.3-.15,1.08-.25,2.15-.32,3.23a9.738,9.738,0,0,0,1.16,2.82c.43.75-.17,2.69-.92,3.44-.08.08-.14.15-.22.23a45.513,45.513,0,0,0,.81,5.95c.14.7.31,1.39.5,2.08.18.13.36.26.55.4a4.1,4.1,0,0,1,1.15,1.32,49.331,49.331,0,0,1,3.92-11.98,51.285,51.285,0,0,1,3.62-6.42,49.372,49.372,0,0,1,4.54-5.82c.17-.19.34-.37.51-.56l.03-.09c.18-.49.34-.98.49-1.48.23-.75.44-1.5.66-2.25.15-.5.3-1.01.47-1.51a23.181,23.181,0,0,1,.87-2.22,20.642,20.642,0,0,1,3.92-5.74,19.3,19.3,0,0,1,3.48-2.81,5.077,5.077,0,0,1,.37-2.6Z" transform="translate(-830.89 5785)"/>
    <path id="パス_7182" data-name="パス 7182" class="cls-2" d="M806.39,970.38c-2.71.09-5.48-.02-8.2,0-1.17,0-2.34.04-3.48.12-.58.04-1.16.09-1.73.15s-1.15.15-1.72.24a20.873,20.873,0,0,0-2.81.67c-.54.17-1.07.36-1.6.58-1,1.23-1.95,2.51-2.85,3.82a59.749,59.749,0,0,0-3.71,6.2c-.89,1.72-1.7,3.48-2.42,5.26a58.481,58.481,0,0,0-2.23,6.66,12.056,12.056,0,0,1,.86,2.45c.29.19.58.38.87.58.09-.05.38-.17.5-.22.36-.14.72-.26,1.08-.39,1.03-.38,2.06-.76,3.1-1.12,3.07-1.08,6.14-2.17,9.18-3.35a149.022,149.022,0,0,0,23.91-11.69,7.88,7.88,0,0,1,.16-2.18c.98-4.28,5.5-7.74,9.19-12.47.1-.65.21-1.37.33-2.14a11.894,11.894,0,0,1-3.34-1.01,33.426,33.426,0,0,1-3.85-2.24c-.81-.52-1.63-1.05-2.5-1.53a10.06,10.06,0,0,0-.98-.5c-.34-.15-.68-.3-1.02-.43-.42-.16-.84-.31-1.27-.45q-.765-.255-1.53-.48a34.444,34.444,0,0,0-3.52.96c.04.15.08.3.13.45h.76l-.12.42-.64-.42-.43-.34a39.275,39.275,0,0,0-9.44,4.7,46.5,46.5,0,0,0-8.63,7.61c-.41.46-.82.93-1.21,1.41.4-.2.81-.39,1.22-.56s.83-.31,1.26-.45c.57-.17,1.14-.32,1.72-.44a23.312,23.312,0,0,1,2.64-.38c.82-.07,1.64-.11,2.47-.12,1.9-.03,3.82.06,5.75.14,4.16.16,8.31.28,12.15-.94a.052.052,0,0,1,.07.03.051.051,0,0,1-.04.07,26.991,26.991,0,0,1-8.09,1.33Z" transform="translate(-830.89 5785)"/>
    <path id="パス_7183" data-name="パス 7183" class="cls-3" d="M774.28,992.36c-.19-.14-.37-.27-.55-.4.13.5.27,1,.43,1.5.13.41.27.82.42,1.22.09.23.32.93.31.68,0-.15.09-.09.22.04.09-.58.2-1.15.31-1.73a4.1,4.1,0,0,0-1.15-1.32Z" transform="translate(-830.89 5785)"/>
    <path id="パス_7184" data-name="パス 7184" class="cls-3" d="M773.57,980.26a10.028,10.028,0,0,1-1.16-2.82c-.02.31-.05.62-.07.92a45.068,45.068,0,0,0,.08,5.57c.08-.08.14-.15.22-.23.76-.75,1.36-2.69.92-3.44Z" transform="translate(-830.89 5785)"/>
    <path id="パス_7185" data-name="パス 7185" class="cls-3" d="M775.29,995.58a3.022,3.022,0,0,0,.44.44c.26.18.53.35.8.53a12.466,12.466,0,0,0-.86-2.45C775.54,994.59,775.41,995.09,775.29,995.58Z" transform="translate(-830.89 5785)"/>
    <path id="パス_7186" data-name="パス 7186" class="cls-3" d="M778.52,969.91c5.38-2.44,7.17-6.33,5.26-11.68a27.444,27.444,0,0,0-2.37-4.6,40.9,40.9,0,0,0-8.67,20.58c.98-1.96,3.35-3.2,5.78-4.3Z" transform="translate(-830.89 5785)"/>
    <path id="パス_7204" data-name="パス 7204" class="cls-4" d="M815.31,978.16a7.877,7.877,0,0,0-.16,2.18c.64-.39,1.28-.78,1.92-1.19l5.38-3.25a82.387,82.387,0,0,0,17.76-14.68,29.742,29.742,0,0,0,3.38-4.58c.06-.11.96-1.42.95-1.45-1.13.48-4.24-.98-5.27-1.3-5.61-1.73-10.39-4.65-15.55-7.33a37.888,37.888,0,0,0-22.49-3.91c.6.46,1.17.9,1.74,1.34h0c1.71.92,3.42,1.83,5.13,2.75,1.65.31,4.06.05,4.79,1.04a44.311,44.311,0,0,1,3.9,6.86c.95-.23,1.89-.46,2.82-.74a25.309,25.309,0,0,0,3.59-1.36.058.058,0,0,1,.06.1,24.511,24.511,0,0,1-3.51,1.65c-.8.31-1.62.58-2.45.84-.07.02-.15.04-.23.07.07.13.13.26.2.39h.04c.58.03,1.16.09,1.74.14,3.2-1.71,5.31-2.83,7.6-4.05-.28,1.8-.53,3.48-.77,5.06a39.2,39.2,0,0,0,8.44.67.105.105,0,1,1,.01.21,39.165,39.165,0,0,1-8.51-.47c-.36,2.34-.68,4.43-.95,6.21a10.876,10.876,0,0,0,1.44.19.055.055,0,0,1-.01.11,9.96,9.96,0,0,1-1.47-.11c-.12.77-.23,1.49-.33,2.14-3.68,4.73-8.21,8.19-9.19,12.47Z" transform="translate(-830.89 5785)"/>
    <path id="パス_7205" data-name="パス 7205" class="cls-4" d="M818.06,956.26c-.16,0-.31-.02-.47-.03a2.26,2.26,0,0,1,.11.22c.13-.07.24-.13.36-.19Z" transform="translate(-830.89 5785)"/>
    <path id="パス_7206" data-name="パス 7206" class="cls-4" d="M801.75,945.52a38.713,38.713,0,0,0-3.43,4.68,5.044,5.044,0,0,0-.37,2.6,20.341,20.341,0,0,1,2.14-1.21.058.058,0,0,1,.06.1,21.21,21.21,0,0,0-2.19,1.37c0,.38.01.75-.01,1.11,1.18-.38,2.35-.75,2.66-.85,2.11,1.66,3.66,2.89,5.09,4.02.3-.1.6-.19.9-.28q-1.815-6.525-3.63-13.06c-.39.51-.8,1.02-1.21,1.52Z" transform="translate(-830.89 5785)"/>
    <path id="パス_7207" data-name="パス 7207" class="cls-4" d="M806.82,957.87c-.1.03-.2.07-.31.11l.43.34c-.04-.15-.08-.3-.13-.45Z" transform="translate(-830.89 5785)"/>
    <path id="パス_7208" data-name="パス 7208" class="cls-4" d="M807.71,947.45c.08.5,0,1.16.3,1.46a.478.478,0,0,0,.17.1,5.264,5.264,0,0,0,1.25.16h0c-.04-.46.08-1.12-.17-1.32a1.85,1.85,0,0,0-.91-.29c-.19-.03-.39-.05-.58-.09h-.06Z" transform="translate(-830.89 5785)"/>
    <path id="パス_7209" data-name="パス 7209" class="cls-4" d="M807.71,958.33l-.76-.01.64.42Z" transform="translate(-830.89 5785)"/>
  </g>
</svg>
