<svg xmlns="http://www.w3.org/2000/svg" width="70.081" height="60.114" viewBox="0 0 70.081 60.114">
  <defs>
    <style>
      .cls-1 {
        fill: #eaffd3;
      }

      .cls-2 {
        fill: #e9ffd1;
      }

      .cls-3 {
        fill: #e8ffcf;
      }

      .cls-4 {
        fill: #e6ffcb;
      }

      .cls-5 {
        fill: #e3ffc7;
      }

      .cls-6 {
        fill: #e6ffca;
      }

      .cls-7 {
        fill: #e3ffc3;
      }

      .cls-8 {
        fill: #e2ffc6;
      }

      .cls-9 {
        fill: #e2ffc2;
      }

      .cls-10 {
        fill: #e0ffc1;
      }

      .cls-11 {
        fill: #e1ffc3;
      }

      .cls-12 {
        fill: #dfffc0;
      }

      .cls-13 {
        fill: #deffbe;
      }

      .cls-14 {
        fill: #e1ffc0;
      }
    </style>
  </defs>
  <g id="グループ_12" data-name="グループ 12" transform="translate(-1021.436 -6620.506)">
    <path id="パス_7213" data-name="パス 7213" class="cls-1" d="M1912.87,882.2c-.92,2.49-2,4.95-2.95,7.44a23.613,23.613,0,0,1,5.26,5.98l2.51-5.19c1.99-4.81,4.2-9.67,4.61-14.93a37.14,37.14,0,0,0,.09-3.95,21.374,21.374,0,0,1-5.44.79c-1.41,3.41-2.74,6.63-4.07,9.85Z" transform="translate(-830.89 5785)"/>
    <path id="パス_7228" data-name="パス 7228" class="cls-2" d="M1915.83,860.26c-3.97.88-5.85,2.48-6.51,4.52.06.02.12.04.17.06a21.614,21.614,0,0,1,4.34,2.47,15.587,15.587,0,0,1,3.51,3.51c.01.01,0,.03,0,.04s-.03,0-.04,0a15.836,15.836,0,0,0-3.59-3.38,21.464,21.464,0,0,0-4.34-2.33c-.05-.02-.09-.03-.14-.05-.61,2.37.28,5.31,1.4,8.44a37.888,37.888,0,0,1,1.07,3.68c.18.47.37.93.54,1.4a.085.085,0,0,1-.16.06.694.694,0,0,1-.05-.13c.28,1.22.55,2.44.86,3.65,1.33-3.22,2.66-6.44,4.07-9.85a21.306,21.306,0,0,0,5.44-.79,39.084,39.084,0,0,0-3.43-14.79c-.64,1.55-1.96,3.22-3.13,3.48Z" transform="translate(-830.89 5785)"/>
    <path id="パス_7229" data-name="パス 7229" class="cls-3" d="M1912.01,878.55a48.136,48.136,0,0,0-10.38-16.29c-.06.18-.11.36-.17.54.09.18.2.36.28.54a8.29,8.29,0,0,1,.44,1.27,10.254,10.254,0,0,1,.28,1.9c.09,1.46-.03,2.95.16,4.4a10.856,10.856,0,0,0,.94,3.22,13.976,13.976,0,0,0,1.79,2.86c.01.01,0,.03,0,.04a.03.03,0,0,1-.04,0,13.7,13.7,0,0,1-1.89-2.83,11.148,11.148,0,0,1-1.05-3.25c-.22-1.45-.15-2.95-.26-4.41a10.261,10.261,0,0,0-.29-1.83,7.6,7.6,0,0,0-.41-1.22l-.09-.18a18.99,18.99,0,0,0,.11,10.57c1.38,4.38,5.29,8.95,4.6,12.82-.02.11-.05.22-.07.33a25.7,25.7,0,0,1,3.97,2.62c.94-2.49,2.02-4.95,2.95-7.44-.31-1.21-.58-2.43-.86-3.65Z" transform="translate(-830.89 5785)"/>
    <path id="パス_7230" data-name="パス 7230" class="cls-3" d="M1909.22,865.11c-.69-.27-1.41-.49-2.12-.7-.51-.15-1.03-.3-1.53-.47a14.924,14.924,0,0,1-1.61-.63,8.215,8.215,0,0,1-1.15-.67,48.515,48.515,0,0,1,8.89,14.58c-.31-1.24-.64-2.48-1.07-3.68-1.12-3.12-2.01-6.06-1.4-8.44Z" transform="translate(-830.89 5785)"/>
    <path id="パス_7231" data-name="パス 7231" class="cls-3" d="M1915.83,860.26c1.17-.26,2.49-1.93,3.13-3.48a38.053,38.053,0,0,0-6.17-9.62,15.93,15.93,0,0,1-3.93,4.5,21.946,21.946,0,0,0-7.01,9.94l.12.12c.19.14.37.27.56.4a8.99,8.99,0,0,0,1.57.88c.34.15.7.28,1.05.41.57.2,1.15.37,1.73.55.82.25,1.64.51,2.43.83.66-2.04,2.54-3.64,6.51-4.52Z" transform="translate(-830.89 5785)"/>
    <path id="パス_7246" data-name="パス 7246" class="cls-4" d="M1908.85,851.65a15.8,15.8,0,0,0,3.93-4.5,34.612,34.612,0,0,0-5.23-4.82,19.344,19.344,0,0,1-4.12,5.09,10.4,10.4,0,0,0-1.77,2.18,15.582,15.582,0,0,1,1.34,1.12.049.049,0,1,1-.07.07c-.44-.38-.9-.73-1.36-1.06-1.67,2.57-3.17,5.46-7.5,4.1,0,.34-.02.67-.02,1.01,1.09.78,2.15,1.58,3.17,2.43a51.207,51.207,0,0,1,4.62,4.34,21.946,21.946,0,0,1,7.01-9.94Z" transform="translate(-830.89 5785)"/>
    <path id="パス_7247" data-name="パス 7247" class="cls-4" d="M1900.26,860.87a12.028,12.028,0,0,1,.87,1.28c.13.21.22.43.34.65.05-.18.11-.36.17-.54-.45-.47-.91-.94-1.38-1.39Z" transform="translate(-830.89 5785)"/>
    <path id="パス_7248" data-name="パス 7248" class="cls-4" d="M1901.43,873.87a18.99,18.99,0,0,1-.11-10.57c-.14-.33-.3-.66-.47-.99-.25-.46-.53-.9-.82-1.34-.21-.32-.44-.63-.66-.93-.84-.77-1.71-1.5-2.6-2.22s-1.8-1.38-2.73-2.03c-.18,7.61-.39,15.22-.46,22.83a11.375,11.375,0,0,0,1.14,3.76c.11.3.24.61.37.91a40.674,40.674,0,0,1,10.88,3.73c.02-.11.05-.22.07-.33.69-3.87-3.21-8.44-4.6-12.82Z" transform="translate(-830.89 5785)"/>
    <path id="パス_7249" data-name="パス 7249" class="cls-5" d="M1893.57,878.63c.07-7.61.28-15.22.46-22.83-1.53-1.07-3.11-2.08-4.76-3.02-.08.63-.15,1.27-.23,1.9a26.818,26.818,0,0,0-3.45,11.31,33.875,33.875,0,0,0,2.76,3.25.049.049,0,1,1-.07.07,33,33,0,0,1-2.71-2.97c-.29,5.37,1.16,10.66,3.76,15.93,1.94.3,3.86.64,5.74,1.04-.13-.31-.26-.61-.37-.91a11.375,11.375,0,0,1-1.14-3.76Z" transform="translate(-830.89 5785)"/>
    <path id="パス_7250" data-name="パス 7250" class="cls-5" d="M1895.65,846.98c-.3-.08-.61-.16-.92-.24a27.836,27.836,0,0,0-4.56-.65h-.11q-.33,2.865-.67,5.73c1.61.94,3.17,1.94,4.66,3.01,0-.34.02-.67.02-1.01.54-2.27,1.04-4.56,1.57-6.84Z" transform="translate(-830.89 5785)"/>
    <path id="パス_7251" data-name="パス 7251" class="cls-5" d="M1898.46,837.65a43.636,43.636,0,0,0-7.75-1.68c-.47,2.27-.09,5.12-.35,7.56-.07.69-.16,1.37-.24,2.06h.09a28.762,28.762,0,0,1,4.62.78c.31.08.61.17.91.26.43-1.82.89-3.64,1.44-5.43a30.483,30.483,0,0,1,1.28-3.56Z" transform="translate(-830.89 5785)"/>
    <path id="パス_7264" data-name="パス 7264" class="cls-6" d="M1901.58,849.73a18.827,18.827,0,0,0-5.93-2.74c-.53,2.28-1.03,4.57-1.57,6.84,4.33,1.36,5.83-1.53,7.5-4.1Z" transform="translate(-830.89 5785)"/>
    <path id="パス_7265" data-name="パス 7265" class="cls-6" d="M1903.43,847.42a19.339,19.339,0,0,0,4.12-5.09,31.016,31.016,0,0,0-8.72-4.57c-.12-.04-.25-.08-.38-.12a33.186,33.186,0,0,0-1.28,3.56c-.55,1.79-1.01,3.6-1.44,5.43a18.777,18.777,0,0,1,5.93,2.97,10.345,10.345,0,0,1,1.77-2.18Z" transform="translate(-830.89 5785)"/>
    <path id="パス_7266" data-name="パス 7266" class="cls-7" d="M1884.02,855.53c1.68-.28,3.35-.57,5.03-.85.07-.63.15-1.27.23-1.9-.57-.33-1.16-.64-1.75-.95h0C1886.36,853.06,1885.19,854.3,1884.02,855.53Z" transform="translate(-830.89 5785)"/>
    <path id="パス_7267" data-name="パス 7267" class="cls-7" d="M1890.71,835.97c-1.6-.2-3.21-.33-4.83-.4-.86,2.1-1.72,4.21-2.58,6.31.5-.1,1-.2,1.49-.3.35,1.3.7,2.61,1.04,3.91a38.287,38.287,0,0,1,4.28.1c.08-.69.16-1.37.24-2.06.26-2.43-.11-5.28.35-7.56Z" transform="translate(-830.89 5785)"/>
    <path id="パス_7268" data-name="パス 7268" class="cls-7" d="M1885.99,846.07c.4,1.51.81,3.02,1.21,4.53.74.39,1.47.8,2.19,1.22q.345-2.865.67-5.73c-1.36-.08-2.72-.08-4.07-.03Z" transform="translate(-830.89 5785)"/>
    <path id="パス_7269" data-name="パス 7269" class="cls-8" d="M1885.58,866.34q-.87-1.065-1.65-2.19a39.688,39.688,0,0,1-2.33-3.87,24.574,24.574,0,0,1-2.68,4.27c-5.84,7.19-5.49,9.16,3.81,12.84-.9,1.24-1.72,2.37-2.52,3.49,3.01.51,6.08.92,9.13,1.4-2.6-5.27-4.05-10.55-3.76-15.93Z" transform="translate(-830.89 5785)"/>
    <path id="パス_7270" data-name="パス 7270" class="cls-8" d="M1884.02,855.53c-.77,1.39-1.45,2.84-2.18,4.26a40.613,40.613,0,0,0,2.34,4.18c.45.69.92,1.36,1.42,2.02a26.962,26.962,0,0,1,3.45-11.31c-1.68.28-3.35.57-5.03.85Z" transform="translate(-830.89 5785)"/>
    <path id="パス_7279" data-name="パス 7279" class="cls-9" d="M1861.21,839.48a35.912,35.912,0,0,0,5.06-2.3,39.351,39.351,0,0,0-5.86,1.6c-.36.13-.72.28-1.08.42-.19.19-.38.37-.58.56a10.956,10.956,0,0,0,1.44,2.15c.15.02.3.03.45.05.12-1.02.14-2.33.56-2.48Z" transform="translate(-830.89 5785)"/>
    <path id="パス_7280" data-name="パス 7280" class="cls-10" d="M1887.53,851.83q-3.165-1.68-6.57-3.07c-2.2-.9-4.47-1.73-6.79-2.47.22.17.43.35.63.53a13.79,13.79,0,0,1,2.12,2.47c.32.47.61.97.89,1.47.13.06.25.12.38.18-.03.13-.05.26-.08.39.24.45.47.91.68,1.37.62,1.37,1.18,2.8,1.77,4.22l6.96-5.1h0Z" transform="translate(-830.89 5785)"/>
    <path id="パス_7281" data-name="パス 7281" class="cls-10" d="M1885.55,846.08c-.83.03-1.65.1-2.46.17-.5.04-.99.08-1.48.11-.75.05-1.49.09-2.24.11-.49.01-.99,0-1.48-.01,1.17.43,2.33.88,3.47,1.36q3.015,1.275,5.85,2.79c-.4-1.51-.81-3.02-1.21-4.53-.14,0-.29,0-.44.01Z" transform="translate(-830.89 5785)"/>
    <path id="パス_7282" data-name="パス 7282" class="cls-10" d="M1883.29,841.87c.86-2.1,1.72-4.21,2.58-6.31a89.145,89.145,0,0,0-16.11,1c-1.17.17-2.33.38-3.49.61a34.8,34.8,0,0,1-5.06,2.3c-.42.15-.44,1.46-.56,2.48.24.03.48.05.72.08a53.475,53.475,0,0,1,6.34,1.27c2.07.53,4.13,1.17,6.19,1.79,1.07.34,2.12.69,3.17,1.06.42,0,.84-.02,1.26-.04.6-.03,1.2-.08,1.79-.14s1.19-.12,1.79-.19,1.2-.13,1.8-.18,1.2-.09,1.81-.12h.31c-.35-1.3-.7-2.61-1.04-3.91-.5.1-1,.2-1.49.3Z" transform="translate(-830.89 5785)"/>
    <path id="パス_7283" data-name="パス 7283" class="cls-10" d="M1866.94,864.65c.73.22,1.46.44,2.18.66q5.505-4.035,11.02-8.07c-.64-1.44-1.24-2.89-1.89-4.29-.1-.23-.22-.45-.33-.67-.4,2.05-.83,4.2-1.35,6.85-6.76-3.59-10.65-2.65-9.64,5.51Z" transform="translate(-830.89 5785)"/>
    <path id="パス_7284" data-name="パス 7284" class="cls-10" d="M1876.48,849.58a15.969,15.969,0,0,0-1.93-2.51,12.619,12.619,0,0,0-1.06-1c-2-.65-4.01-1.28-6.02-1.86-2.05-.59-4.12-1.12-6.2-1.5l-.18-.03c5.11,2.47,10.24,4.95,15.82,7.64-.14-.25-.27-.5-.42-.74Z" transform="translate(-830.89 5785)"/>
    <path id="パス_7285" data-name="パス 7285" class="cls-11" d="M1887.53,851.83l-6.96,5.1c.16.37.3.75.46,1.12.26.59.53,1.17.81,1.75.72-1.42,1.41-2.87,2.18-4.26,1.17-1.23,2.34-2.47,3.51-3.7Z" transform="translate(-830.89 5785)"/>
    <path id="パス_7286" data-name="パス 7286" class="cls-11" d="M1878.92,864.54a25.187,25.187,0,0,0,2.68-4.27c-.35-.67-.69-1.34-1.01-2.02-.15-.33-.29-.67-.44-1.01q-5.505,4.035-11.02,8.07c1.23,1.17,2.47,2.34,3.7,3.51q3.165,5.925,6.33,11.86c.35.06.7.12,1.06.18.81-1.11,1.63-2.25,2.52-3.49-9.3-3.68-9.65-5.65-3.81-12.84Z" transform="translate(-830.89 5785)"/>
    <path id="パス_7287" data-name="パス 7287" class="cls-12" d="M1869.98,870.34c-.22.73-.44,1.46-.66,2.18,1.21,2.26,2.41,4.52,3.62,6.78.06.02.12.03.18.05v-.48l.41.12-.26.4c1.91.52,3.88.93,5.88,1.29q-3.165-5.925-6.33-11.86c-.95.51-1.9,1.01-2.85,1.52Z" transform="translate(-830.89 5785)"/>
    <path id="パス_7296" data-name="パス 7296" class="cls-13" d="M1862.65,863.69c-4.91-3.68-6.83-8.09-8.47-13.27-.48-1.51-1.04-3-1.66-4.66-.47,3.12.02,6.68.36,9.7a33.394,33.394,0,0,0,2.73,10.05c3.67,8.12,10,11.75,17.31,13.78-1.21-2.26-2.41-4.52-3.62-6.78-5.31-.98-4.62-7.31-6.66-8.84Z" transform="translate(-830.89 5785)"/>
    <path id="パス_7297" data-name="パス 7297" class="cls-14" d="M1862.65,863.69c2.04,1.53,1.35,7.86,6.66,8.84.22-.73.44-1.46.66-2.18q-1.515-2.85-3.04-5.69c-1.02-8.16,2.88-9.1,9.64-5.51.52-2.65.95-4.8,1.35-6.85-.17-.35-.33-.7-.51-1.05-.16-.31-.35-.61-.52-.91-5.57-2.69-10.71-5.17-15.82-7.64a36.634,36.634,0,0,0-5.74-.61c-.23,0-.47,0-.71-.01l-.78.87c-.36.4-.83,1.8-1,1.28a12.881,12.881,0,0,0-.32,1.55c.62,1.66,1.18,3.15,1.66,4.66,1.64,5.18,3.56,9.58,8.47,13.27Z" transform="translate(-830.89 5785)"/>
    <path id="パス_7298" data-name="パス 7298" class="cls-14" d="M1859.34,839.2c-.64.26-1.27.52-1.9.8-.4.18-1.47.78-1.39.69a14.545,14.545,0,0,0-1.14,1.08,33.312,33.312,0,0,1,5.29.14,10.94,10.94,0,0,1-1.44-2.15C1858.95,839.58,1859.14,839.39,1859.34,839.2Z" transform="translate(-830.89 5785)"/>
    <path id="パス_7299" data-name="パス 7299" class="cls-14" d="M1877.81,850.76c.04.07.08.13.12.2.07.12.12.25.18.37.03-.13.05-.26.08-.39C1878.06,850.88,1877.94,850.82,1877.81,850.76Z" transform="translate(-830.89 5785)"/>
    <path id="パス_7300" data-name="パス 7300" class="cls-10" d="M1869.98,870.34c.95-.51,1.9-1.01,2.85-1.52-1.23-1.17-2.47-2.34-3.7-3.51-.73-.22-1.46-.44-2.18-.66q1.515,2.85,3.04,5.69Z" transform="translate(-830.89 5785)"/>
    <path id="パス_7301" data-name="パス 7301" class="cls-14" d="M1873.12,878.88v.48s.1.03.15.04l.26-.4-.41-.12Z" transform="translate(-830.89 5785)"/>
  </g>
</svg>
