<svg xmlns="http://www.w3.org/2000/svg" width="26.494" height="17.221" viewBox="0 0 26.494 17.221">
  <defs>
    <style>
      .cls-1 {
        fill: #d7feaf;
      }

      .cls-2 {
        fill: #d6fdad;
      }

      .cls-3 {
        fill: #d3fca9;
      }

      .cls-4 {
        fill: #d6fdac;
      }

      .cls-5 {
        fill: none;
        stroke: #d3fca9;
        stroke-linecap: round;
        stroke-linejoin: round;
      }
    </style>
  </defs>
  <g id="グループ_7" data-name="グループ 7" transform="translate(-597.606 -6559.38)">
    <path id="パス_7336" data-name="パス 7336" class="cls-1" d="M1434.87,785.83c.14-.07.26-.16.4-.23.28-.14.56-.28.85-.41a.035.035,0,0,1-.01-.02c0-.02.01-.03.02-.03l.17-.03c.31-.14.62-.28.94-.42,1.02-.45,2.07-.86,3.11-1.28l.72-.96c.07-.09.14-.18.21-.26.32-.4.65-.82.98-1.24a17.116,17.116,0,0,1,1.58-1.79,5.055,5.055,0,0,1,2.06-1.28c.02,0,.03,0,.04.02s0,.03-.02.04a5.15,5.15,0,0,0-1.93,1.37,16.989,16.989,0,0,0-1.46,1.85c-.31.43-.62.87-.95,1.27-.07.09-.15.18-.22.26a4.168,4.168,0,0,1-.37.36c-.08.07-.16.14-.24.2.38-.16.76-.31,1.14-.47a32.876,32.876,0,0,0,7.37-4.18,7.642,7.642,0,0,0,1.59-1.68c.01-.02.04-.02.06-.01s.02.04.01.06a6.34,6.34,0,0,1-.87,1.08,22.865,22.865,0,0,0,4.2-3.58l-5.23-.09c-1.79.06-3.6.45-5.38.65-3.87.42-10.22,0-12.83,3.61.31,2.27.66,4.77,1,7.27,1.03-.03,2.05-.05,3.08-.08Z" transform="translate(-830.89 5785)"/>
    <path id="パス_7337" data-name="パス 7337" class="cls-1" d="M1448.61,779.28c-.71.53-1.45,1.03-2.12,1.49a30.006,30.006,0,0,1-4.45,2.37c-1.36.61-2.75,1.18-4.12,1.78a2.435,2.435,0,0,0,.27-.01h.58c.29,0,.58,0,.87.01a23.4,23.4,0,0,0,3.35-.1,10.955,10.955,0,0,0,2.11-.49c.5-.16.99-.36,1.48-.57l.3-.42c.62-1.29.98-2.99,1.74-4.08Z" transform="translate(-830.89 5785)"/>
    <path id="パス_7338" data-name="パス 7338" class="cls-1" d="M1444.79,786.29c.55-.77,1.1-1.55,1.65-2.32-.42.19-.84.38-1.27.54a10.386,10.386,0,0,1-2.14.57,19.733,19.733,0,0,1-2.77.19h-1.45c-.21,0-.41,0-.62-.01-.14,0-.27,0-.41-.01-.19,0-.38-.02-.57-.02-.4.18-.79.38-1.18.57q3.285-.09,6.58-.17c.73.22,1.46.44,2.18.66Z" transform="translate(-830.89 5785)"/>
    <path id="パス_7354" data-name="パス 7354" class="cls-2" d="M1450.04,778.05a8.633,8.633,0,0,1-.69.66c-.23.2-.49.37-.73.56-.76,1.09-1.11,2.78-1.74,4.08.34-.06.69-.13,1.03-.19a2.008,2.008,0,0,0,.21-.1c.02,0,.03,0,.04.01a.06.06,0,0,1-.01.04l4.09-.75a58.246,58.246,0,0,0,2.75-7.89h-.77a23.226,23.226,0,0,1-4.2,3.57Z" transform="translate(-830.89 5785)"/>
    <path id="パス_7355" data-name="パス 7355" class="cls-3" d="M1446.58,783.77c.45-.19.89-.4,1.33-.61-.34.06-.69.13-1.03.19l-.3.42Z" transform="translate(-830.89 5785)"/>
    <path id="パス_7356" data-name="パス 7356" class="cls-3" d="M1428.77,783.85c-.47,2.5-.39,5.1.67,6.6.04-.06.08-.11.11-.16a11.823,11.823,0,0,1,1.4-1.66,13.9,13.9,0,0,1,1.66-1.41c.2-.15.41-.29.62-.42-.48-.3-.96-.6-1.44-.88-1.01-.68-2.01-1.39-3.02-2.06Z" transform="translate(-830.89 5785)"/>
    <path id="パス_7357" data-name="パス 7357" class="cls-3" d="M1448.16,783.12c-.56.3-1.14.58-1.72.85-.55.77-1.1,1.55-1.65,2.32-3.86,5.29-7.49,3.08-11.13.78-.01,0-.02.01-.03.02a17.351,17.351,0,0,0-1.51,1.02c-.32.24-.64.5-.95.76a13.476,13.476,0,0,0-1.5,1.52l-.15.18c.1.12.2.24.31.35.31.3,1.28.25,1.66.3a45.67,45.67,0,0,0,5.35.38,23.656,23.656,0,0,0,5.5-.54c5.2-1.23,8.01-4.59,9.9-8.69l-4.09.75h0Z" transform="translate(-830.89 5785)"/>
    <path id="パス_7358" data-name="パス 7358" class="cls-4" d="M1431.79,785.92c-.34-2.51-.69-5.01-1-7.27,0,0-.02.02-.02.03a13.817,13.817,0,0,0-2,5.18C1429.78,784.53,1430.78,785.24,1431.79,785.92Z" transform="translate(-830.89 5785)"/>
    <path id="パス_7359" data-name="パス 7359" class="cls-4" d="M1433.23,786.8a1.438,1.438,0,0,0,.15-.11c.48-.31.98-.58,1.49-.86-1.03.03-2.05.05-3.08.08.48.28.96.58,1.44.88Z" transform="translate(-830.89 5785)"/>
    <path id="パス_7360" data-name="パス 7360" class="cls-4" d="M1444.79,786.29c-.73-.22-1.46-.44-2.18-.66q-3.285.09-6.58.17c-.18.09-.36.17-.53.26-.63.32-1.24.65-1.83,1.01,3.63,2.3,7.27,4.51,11.13-.78Z" transform="translate(-830.89 5785)"/>
    <path id="パス_7361" data-name="パス 7361" class="cls-5" d="M1442.61,785.63c.73.22,1.46.44,2.18.66" transform="translate(-830.89 5785)"/>
  </g>
</svg>
