<svg xmlns="http://www.w3.org/2000/svg" width="73.762" height="42.83" viewBox="0 0 73.762 42.83">
  <defs>
    <style>
      .cls-1 {
        fill: #defeb7;
      }

      .cls-2 {
        fill: #defeb5;
      }

      .cls-3 {
        fill: #dcfeb3;
      }

      .cls-4 {
        fill: #d8fdae;
      }

      .cls-5 {
        fill: #dafdb1;
      }

      .cls-6 {
        fill: #d9fdaf;
      }

      .cls-7 {
        fill: #d6fcac;
      }

      .cls-8 {
        fill: none;
        stroke: #d9fdaf;
        stroke-linecap: round;
        stroke-linejoin: round;
      }
    </style>
  </defs>
  <g id="グループ_4" data-name="グループ 4" transform="translate(-282.772 -6654.866)">
    <path id="パス_7302" data-name="パス 7302" class="cls-1" d="M1126.31,900.2c-.79.68-1.57,1.36-2.32,2.07-2.3,2.18-4.31,4.41-6.58,6.39a26.942,26.942,0,0,1-3.15,2.4l.02.08.04.15a11.922,11.922,0,0,1,1.23.46c.73.18,1.47.31,2.21.43a37.985,37.985,0,0,0,6.65.51c.16,0,.31-.02.47-.02a18.25,18.25,0,0,0,.82-5.57,24.246,24.246,0,0,1,.61-6.91Z" transform="translate(-830.89 5785)"/>
    <path id="パス_7303" data-name="パス 7303" class="cls-1" d="M1128.47,891.47c-2.82-1.38-5.69-2.95-8.66-4.39a51.928,51.928,0,0,0-4.52,11.87c-.57,2.24-1.03,4.49-1.38,6.78-.04.26.02,2.36-.23,2.35a17.086,17.086,0,0,0,.56,2.85,27.915,27.915,0,0,0,3.04-2.43c2.23-2.02,4.19-4.29,6.45-6.51.9-.88,1.83-1.74,2.8-2.56a14.148,14.148,0,0,1,6.39-8.06c.09-.31.17-.62.27-.93s.19-.6.3-.9c.17-.47.35-.94.55-1.42.29-.69.6-1.39.95-2.07.12-.24.25-.47.38-.7-.6-1.36-1.3-2.94-2.21-4.99-1.82,4.31-2.89,6.85-4.67,11.09Z" transform="translate(-830.89 5785)"/>
    <path id="パス_7304" data-name="パス 7304" class="cls-1" d="M1135.51,885.71c-.08.16-.17.33-.26.49-.33.68-.64,1.38-.91,2.06q-.285.7-.54,1.41c-.18.49-.34.98-.49,1.48a26.769,26.769,0,0,1,3.79-1.86c-.5-1.12-.99-2.24-1.59-3.58Z" transform="translate(-830.89 5785)"/>
    <path id="パス_7307" data-name="パス 7307" class="cls-2" d="M1140.66,897.8c-.61-.02-1.21-.05-1.8-.1-1.2-.1-2.51-.27-3.83-.37q-.51-.045-1.02-.06c-.51-.02-1.02-.03-1.52-.02a12.06,12.06,0,0,0-2.1.23,9.523,9.523,0,0,0-1.08.29c-1.03.78-2.03,1.59-3.01,2.43a24.211,24.211,0,0,0-.61,6.91,18.347,18.347,0,0,1-.82,5.57,53.536,53.536,0,0,0,18.4-4.36,10.87,10.87,0,0,1-2.62-10.51Z" transform="translate(-830.89 5785)"/>
    <path id="パス_7308" data-name="パス 7308" class="cls-2" d="M1152.44,881.73a18.184,18.184,0,0,0-2.92,2.84l-1.14,1.34c-.17.2-.34.4-.51.59-.26.3-.52.59-.78.88-.23.25-.46.5-.7.74,1.55-.48,3.12-.89,4.71-1.25.51-.12,1.03-.21,1.55-.32.49-1.8.79-3.8,1.22-5.69a10.291,10.291,0,0,0-1.41.87Z" transform="translate(-830.89 5785)"/>
    <path id="パス_7309" data-name="パス 7309" class="cls-2" d="M1126.52,899.44c.91-.78,1.84-1.55,2.79-2.28.65-.5,1.32-.99,1.99-1.47a10.952,10.952,0,0,0,.79-1.66c.17-.44.31-.88.44-1.33.09-.3.17-.6.26-.9.04-.14.08-.29.12-.43a14.139,14.139,0,0,0-6.39,8.06Z" transform="translate(-830.89 5785)"/>
    <path id="パス_7310" data-name="パス 7310" class="cls-2" d="M1142.09,892.26c4.48,1.01,7.01.19,8.57-1.57-.23-.07-.47-.14-.7-.21-.38-.12-.77-.24-1.15-.36-.64-.2-1.28-.38-1.93-.53-.43-.1-.87-.18-1.31-.24-.27-.04-.53-.07-.8-.09-.52.18-1.03.37-1.54.57a47.663,47.663,0,0,0-7.51,3.63,72.305,72.305,0,0,0-6.04,4.05,9.784,9.784,0,0,1,1.09-.32,12.123,12.123,0,0,1,1.71-.23c.51-.03,1.03-.04,1.55-.02.34.01.69.03,1.03.05,1.32.1,2.62.29,3.83.41.62.06,1.25.11,1.88.14a6.328,6.328,0,0,1,.68-1.35c.58-.84.39-2.21.64-3.93Z" transform="translate(-830.89 5785)"/>
    <path id="パス_7311" data-name="パス 7311" class="cls-2" d="M1157.42,874.32c-1.46-1.37-2.87-2.69-4.26-3.99-7.78-1.09-15.6-.46-22.21,4.04a33.371,33.371,0,0,0-7.44,7.04,39.482,39.482,0,0,0-3.7,5.68c2.97,1.44,5.84,3,8.66,4.39,1.79-4.24,2.86-6.78,4.67-11.09.91,2.05,1.61,3.63,2.21,4.99a20.829,20.829,0,0,1,2.79-4.03,12.679,12.679,0,0,1,5.15-3.57c.02,0,.03,0,.04.02a.04.04,0,0,1-.02.04,12.564,12.564,0,0,0-5.02,3.65,21.586,21.586,0,0,0-2.79,4.24c.59,1.34,1.09,2.46,1.59,3.58a26.769,26.769,0,0,0-3.79,1.86c-.04.14-.09.28-.13.42-.2.65-.41,1.28-.65,1.91a11.537,11.537,0,0,1-.82,1.7c-.08.14-.17.27-.26.41,1.3-.92,2.63-1.79,3.97-2.62a46.313,46.313,0,0,1,7.59-3.7c1.03-.39,2.07-.75,3.13-1.08l.78-.96c.24-.31.49-.61.73-.92l.49-.61c.15-.18.3-.37.45-.55l.69-.81a17.832,17.832,0,0,1,3.03-2.82,9.212,9.212,0,0,1,1.62-.91c.61-2.59,1.49-4.95,3.51-6.3Z" transform="translate(-830.89 5785)"/>
    <path id="パス_7312" data-name="パス 7312" class="cls-2" d="M1151.21,887.38c-2.04.49-4.06,1.07-6.03,1.74.13,0,.27.01.4.02a10.043,10.043,0,0,1,1.34.18,19.482,19.482,0,0,1,1.97.48c.39.11.77.24,1.16.36.28.09.55.18.83.27a9.858,9.858,0,0,0,1.6-3.32c-.42.09-.85.17-1.27.27Z" transform="translate(-830.89 5785)"/>
    <path id="パス_7320" data-name="パス 7320" class="cls-3" d="M1174.15,876.28c-.83-.31-1.66-.61-2.48-.91a93.547,93.547,0,0,0-18.51-5.05c1.39,1.3,2.8,2.62,4.26,3.99-2.02,1.35-2.9,3.71-3.51,6.3a8.285,8.285,0,0,1,4.63-.61c.01,0,.03.02.02.03s-.02.03-.03.02a8.215,8.215,0,0,0-4.68.81c-.43,1.89-.73,3.88-1.22,5.69,1.74-.36,3.49-.68,5.26-.93h0a.037.037,0,0,1-.02-.03c0-.02.01-.02.02-.02h.03c-1.04-3.37,1.86-6.74,3.64-10.06.36-.67,3.39.09,7.3.3-3.38,1.8-4.65,2.48-6.03,3.22,1.38,1,2.66,2.34,4.04,3.14a14.552,14.552,0,0,1,1.56-.7,8.621,8.621,0,0,1,3.4-.55,12.977,12.977,0,0,1,1.17-.84l1.16-3.81Z" transform="translate(-830.89 5785)"/>
    <path id="パス_7321" data-name="パス 7321" class="cls-3" d="M1158.09,886.04c-1.88.3-3.76.65-5.61,1.06a10.05,10.05,0,0,1-1.6,3.32c.3.1.6.2.9.29a24.209,24.209,0,0,0,4.89,1,18.338,18.338,0,0,0,2.09.08c.6-.85,1.23-1.74,1.93-2.67a7.643,7.643,0,0,1-2.59-3.08Z" transform="translate(-830.89 5785)"/>
    <path id="パス_7322" data-name="パス 7322" class="cls-3" d="M1144.59,897.73a32.264,32.264,0,0,1-3.93.07,10.87,10.87,0,0,0,2.62,10.51c.23-.09.46-.18.69-.28l5.57-2.17c.71-.48,1.44-.93,2.16-1.39-1.38-.5-2.8-1.02-4.27-1.56,3.24-2.63,5.59-4.17,7.47-6.16a43.132,43.132,0,0,0,3.76-4.82c-.66.02-1.33.02-2-.02a24.218,24.218,0,0,1-4.96-.9c-.35-.1-.69-.21-1.04-.32-1.55,1.76-4.09,2.58-8.57,1.57-.25,1.72-.07,3.09-.64,3.93a6.328,6.328,0,0,0-.68,1.35,32.282,32.282,0,0,0,3.81,0,24.073,24.073,0,0,0,5.61-.98c.01,0,.03,0,.03.02a.04.04,0,0,1-.02.04,24.15,24.15,0,0,1-5.61,1.11Z" transform="translate(-830.89 5785)"/>
    <path id="パス_7323" data-name="パス 7323" class="cls-3" d="M1168.86,882.78a3.321,3.321,0,0,0,1.12-.48c.19-.12.39-.26.59-.4.38-.28.77-.59,1.16-.9a8.7,8.7,0,0,0-3.23.67,13.761,13.761,0,0,0-1.34.65,4.928,4.928,0,0,0,1.19.45,1.454,1.454,0,0,0,.51,0Z" transform="translate(-830.89 5785)"/>
    <path id="パス_7324" data-name="パス 7324" class="cls-4" d="M1176.12,889.39h0c-.16.52-.32,1.04-.47,1.56q2.22-1.41,4.4-2.87a11.874,11.874,0,0,1,1.8-2.95c1.07-1.3,2.17-2.59,3.21-3.93-.79-.46-1.62-.86-2.39-1.26-.86-.45-1.73-.87-2.62-1.27q-2.34,2.775-4.67,5.55l.78-.03a.05.05,0,1,1,0,.1l-.88.06h-.01c.28,1.69.57,3.37.85,5.04Z" transform="translate(-830.89 5785)"/>
    <path id="パス_7325" data-name="パス 7325" class="cls-5" d="M1176.12,889.39c-.16.52-.32,1.04-.47,1.56h0c.16-.52.32-1.04.47-1.56Z" transform="translate(-830.89 5785)"/>
    <path id="パス_7326" data-name="パス 7326" class="cls-5" d="M1147.43,902.92c1.47.54,2.89,1.06,4.27,1.56,7.47-4.7,15.62-8.28,23.11-12.99.28-.18.56-.36.83-.54.16-.52.32-1.04.47-1.56-.28-1.68-.57-3.35-.85-5.03v-.01c-3.81.23-7.73.51-11.66.95-1.11.12-2.22.26-3.33.41l.81.12q.525.09,1.05.21c.62.14,1.24.3,1.86.46a41.189,41.189,0,0,0,4.34.99,13.711,13.711,0,0,0,4.52,0c.02,0,.03,0,.03.02s0,.03-.02.03a13.51,13.51,0,0,1-4.56.16,37.641,37.641,0,0,1-4.4-.88l-1.86-.45-1.03-.24c-.34-.08-.69-.15-1.04-.21-.18-.03-.36-.07-.55-.1-.45.07-.9.15-1.35.22a7.793,7.793,0,0,0,2.59,3.08c-.7.94-1.33,1.82-1.93,2.67a13.609,13.609,0,0,0,2.89-.33c.01,0,.03,0,.03.02s0,.03-.02.03a14,14,0,0,1-3.01.42,43.393,43.393,0,0,1-3.76,4.82c-1.88,1.98-4.22,3.53-7.47,6.16Z" transform="translate(-830.89 5785)"/>
    <path id="パス_7327" data-name="パス 7327" class="cls-5" d="M1168.86,875.82c-3.91-.21-6.94-.97-7.3-.3-1.77,3.31-4.68,6.68-3.64,10.06h.36q1.575-.225,3.15-.39c.26-.12.52-.24.77-.37s.52-.27.77-.41.51-.29.76-.44c.46-.26.91-.53,1.37-.8.58-.34,1.17-.68,1.77-.98-1.39-.8-2.66-2.14-4.04-3.14,1.38-.74,2.65-1.42,6.03-3.22Z" transform="translate(-830.89 5785)"/>
    <path id="パス_7328" data-name="パス 7328" class="cls-5" d="M1172.99,880.09c-.38.24-.77.53-1.17.84h.35a.032.032,0,0,1,.03.03.027.027,0,0,1-.03.03h-.43c-.39.3-.78.62-1.16.9-.2.15-.4.28-.59.4a3.321,3.321,0,0,1-1.12.48,1.454,1.454,0,0,1-.51,0,4.924,4.924,0,0,1-1.19-.45c-.64.35-1.27.73-1.89,1.11-.45.28-.9.56-1.37.82-.26.14-.52.28-.79.41s-.54.25-.81.37c-.06.02-.11.05-.17.07.48-.05.96-.1,1.44-.14,3.92-.37,7.83-.56,11.63-.72-.74-1.38-1.47-2.76-2.21-4.14Z" transform="translate(-830.89 5785)"/>
    <path id="パス_7339" data-name="パス 7339" class="cls-6" d="M1174.15,876.28l-1.16,3.81c.74,1.38,1.47,2.76,2.21,4.14h.18q2.34-2.775,4.67-5.55c-1.93-.88-3.92-1.65-5.91-2.39Z" transform="translate(-830.89 5785)"/>
    <path id="パス_7340" data-name="パス 7340" class="cls-6" d="M1175.28,884.34h-.02v.01h.01Z" transform="translate(-830.89 5785)"/>
    <path id="パス_7341" data-name="パス 7341" class="cls-7" d="M1180.05,888.08c1.1-.74,2.21-1.48,3.3-2.23.9-.62,1.82-1.23,2.71-1.86a15.918,15.918,0,0,1,1.24-1.04,8.955,8.955,0,0,0-2.24-1.75c-1.04,1.33-2.14,2.63-3.21,3.93a11.582,11.582,0,0,0-1.8,2.95Z" transform="translate(-830.89 5785)"/>
    <path id="パス_7342" data-name="パス 7342" class="cls-7" d="M1187.31,882.96s.07.09.11.13C1187.44,882.96,1187.4,882.93,1187.31,882.96Z" transform="translate(-830.89 5785)"/>
    <path id="パス_7343" data-name="パス 7343" class="cls-8" d="M1176.12,889.39c-.28-1.68-.57-3.35-.85-5.03" transform="translate(-830.89 5785)"/>
    <path id="パス_7344" data-name="パス 7344" class="cls-8" d="M1176.12,889.39c-.16.52-.32,1.04-.47,1.56" transform="translate(-830.89 5785)"/>
  </g>
</svg>
