<svg xmlns="http://www.w3.org/2000/svg" width="16.679" height="13.046" viewBox="0 0 16.679 13.046">
  <defs>
    <style>
      .cls-1 {
        fill: #ecffd8;
      }

      .cls-2 {
        fill: #ebffd6;
      }

      .cls-3 {
        fill: #eaffd5;
      }
    </style>
  </defs>
  <g id="グループ_17" data-name="グループ 17" transform="translate(-1472.353 -6648.633)">
    <path id="パス_7158" data-name="パス 7158" class="cls-1" d="M2303.61,872.95c-.1.53-.2,1.07-.27,1.61-.03.25-.15.98-.07.74a11.2,11.2,0,0,0,3.32,1.19q-1.41-2.175-2.81-4.35C2303.72,872.41,2303.66,872.68,2303.61,872.95Z" transform="translate(-830.89 5785)"/>
    <path id="パス_7170" data-name="パス 7170" class="cls-2" d="M2316.18,868.06a1.786,1.786,0,0,1,.14-.23.757.757,0,0,1,.11-.14l.14-.16a.272.272,0,0,1-.05.04c-.47.39-.95.75-1.44,1.11.31-.08.62-.15.93-.22.05-.13.11-.27.17-.39Z" transform="translate(-830.89 5785)"/>
    <path id="パス_7172" data-name="パス 7172" class="cls-2" d="M2319.8,865.33a7.4,7.4,0,0,0,.12-1.11c-.22.26-.45.51-.68.76q-.42.465-.87.9c-.2.2-.4.39-.6.58-.33.3-.66.6-1,.89h0v.03a3.662,3.662,0,0,0-.16.35c-.03.06-.05.11-.08.17l-.22.47c1.08-.26,2.15-.52,3.19-.77a21.979,21.979,0,0,0,.32-2.28Z" transform="translate(-830.89 5785)"/>
    <path id="パス_7173" data-name="パス 7173" class="cls-2" d="M2312.93,864.92c-.72-.16-1.44-.32-2.16-.5a10.652,10.652,0,0,0-5.58,4.14,10.084,10.084,0,0,0-1.41,3.58c.94,1.45,1.87,2.89,2.81,4.35a11.559,11.559,0,0,0,6.09-.53,12.733,12.733,0,0,1-.19-5.5c-.25.16-.49.34-.74.5l-.15.09-.12.14c-.07.08-.15.15-.22.22-.11.11-.22.23-.33.34-.43.46-.82.95-1.26,1.4a5.526,5.526,0,0,1-1.13.9h-.03v-.03a7.238,7.238,0,0,0,1.6-1.62c.23-.29.46-.59.71-.88-1.12.65-2.27,1.26-3.46,1.83a.048.048,0,0,1-.06-.02c0-.02,0-.05.02-.06,1.48-.8,2.91-1.67,4.27-2.59a2.556,2.556,0,0,1-.27.05,14.921,14.921,0,0,1-1.77.16,11.46,11.46,0,0,0-2.61.34c-.01,0-.03,0-.03-.01s0-.03.02-.03a6.78,6.78,0,0,1,1.07-.29c.81-.15,1.64-.2,2.46-.29.35-.04.69-.1,1.04-.17.09-.02.17-.03.26-.05l.32-.05c.19-.13.38-.27.57-.41.07-.25.13-.5.22-.74.38-.09.75-.18,1.12-.27.75-.58,1.5-1.17,2.22-1.79.12-.11.25-.21.37-.32a2.414,2.414,0,0,1-.35.12,15.37,15.37,0,0,1-2.34.46c-.8.12-1.61.24-2.41.38q-.8.135-1.59.33c-.01,0-.03,0-.03-.02s0-.03.02-.03c.52-.15,1.05-.27,1.58-.39.8-.17,1.6-.31,2.4-.46.64-.12,1.29-.23,1.92-.4.19-.05.37-.11.56-.17.12-.04.24-.09.36-.13.15-.05.29-.11.43-.17l.43-.37c.2-.17.4-.35.6-.52.3-.26.6-.52.9-.79l.8-.71h0l-3.04-.28a17.861,17.861,0,0,0-3.27.12c-.26.69-.48,1.16-.61,1.13Z" transform="translate(-830.89 5785)"/>
    <path id="パス_7200" data-name="パス 7200" class="cls-3" d="M2312.93,864.92c.13.03.34-.44.61-1.13a14.285,14.285,0,0,0-2.77.63C2311.49,864.6,2312.21,864.76,2312.93,864.92Z" transform="translate(-830.89 5785)"/>
    <path id="パス_7202" data-name="パス 7202" class="cls-3" d="M2312.63,869.94c.1-.07.2-.14.29-.21.36-.26.7-.53,1.05-.8-.37.09-.74.18-1.12.27C2312.76,869.44,2312.7,869.69,2312.63,869.94Z" transform="translate(-830.89 5785)"/>
    <path id="パス_7203" data-name="パス 7203" class="cls-3" d="M2312.68,875.96a10.12,10.12,0,0,0,6.28-6.31,16.074,16.074,0,0,0,.52-2.04c-1.04.25-2.1.51-3.19.77v.02c-.13.26-.24.52-.34.78a16.259,16.259,0,0,1-.73,1.71,3.9,3.9,0,0,1-1.04,1.29h-.04v-.03a3.584,3.584,0,0,0,.69-.83,9.119,9.119,0,0,0,.8-1.93c.09-.27.18-.54.29-.8.02-.04.04-.09.06-.13-.31.07-.61.15-.93.22-.19.14-.36.29-.55.42-.66.48-1.35.92-2.03,1.36a12.733,12.733,0,0,0,.19,5.5Z" transform="translate(-830.89 5785)"/>
  </g>
</svg>
