<svg xmlns="http://www.w3.org/2000/svg" width="25.75" height="16.206" viewBox="0 0 25.75 16.206">
  <defs>
    <style>
      .cls-1 {
        fill: #efffde;
      }

      .cls-2 {
        fill: #eeffdc;
      }

      .cls-3 {
        fill: #edffda;
      }

      .cls-4 {
        fill: #ebffd7;
      }

      .cls-5 {
        fill: #eaffd3;
      }
    </style>
  </defs>
  <g id="グループ_15" data-name="グループ 15" transform="translate(-1141.6 -6530.794)">
    <path id="パス_7138" data-name="パス 7138" class="cls-1" d="M1981.13,746.75c2.08,1.68,4.24,3.01,6.35,3.06a13.67,13.67,0,0,1,7.41,2.29,14.244,14.244,0,0,1,1.72.38,15.714,15.714,0,0,1,1.63.57h0l-1.96-2.98c-3.93-3.85-10.16-5.47-15.15-3.31Z" transform="translate(-830.89 5785)"/>
    <path id="パス_7139" data-name="パス 7139" class="cls-1" d="M1998.16,753.19a15.42,15.42,0,0,0-1.62-.42c-.28-.06-.57-.09-.85-.14.67.49,1.31,1.01,1.93,1.56.19-.33.38-.66.55-1Z" transform="translate(-830.89 5785)"/>
    <path id="パス_7151" data-name="パス 7151" class="cls-2" d="M1981.13,746.75a10.809,10.809,0,0,0-2.48,1.47,16.8,16.8,0,0,0-1.95,1.82,63.774,63.774,0,0,0,6.85,3.48,27.871,27.871,0,0,1,2.77-.87,24.8,24.8,0,0,1,3.72-.67l.36-.03a11.873,11.873,0,0,1-1.31-.31c-.23-.07-.45-.16-.67-.25-.87-.36-1.7-.83-2.59-1.12a7.063,7.063,0,0,0-1.45-.31,12.435,12.435,0,0,0-1.49-.05.03.03,0,1,1,0-.06,9.4,9.4,0,0,1,1.5-.01,6.949,6.949,0,0,1,1.49.26c.91.27,1.75.7,2.64,1.04.22.08.44.16.66.22a10.439,10.439,0,0,0,1.26.27q.525.075,1.05.12l.68.08c.12.02.25.03.37.05a18.633,18.633,0,0,1,2.24.19c.04,0,.09.02.13.02a13.67,13.67,0,0,0-7.41-2.29c-2.1-.04-4.27-1.38-6.35-3.06Z" transform="translate(-830.89 5785)"/>
    <path id="パス_7152" data-name="パス 7152" class="cls-2" d="M1989.2,753.44a7.591,7.591,0,0,1,1.14-.81c.14-.08.28-.16.43-.23-.23.02-.46.03-.69.05a26.6,26.6,0,0,0-3.66.6c-.81.19-1.62.41-2.4.67a28.564,28.564,0,0,0,3.6,1.17c.51-.45,1.01-.95,1.59-1.44Z" transform="translate(-830.89 5785)"/>
    <path id="パス_7153" data-name="パス 7153" class="cls-2" d="M1996.37,756.23c.43-.67.85-1.34,1.25-2.03a23.913,23.913,0,0,0-1.93-1.56c-.33-.05-.65-.12-.98-.16a22.191,22.191,0,0,0-2.31-.12c-.28,0-.57,0-.85.01l-.67.36c-.14.08-.28.15-.42.23a7.615,7.615,0,0,0-1.06.72c-.56.44-1.04.88-1.53,1.28a24.089,24.089,0,0,0,5.89.68,5.64,5.64,0,0,1,2.62.6Z" transform="translate(-830.89 5785)"/>
    <path id="パス_7163" data-name="パス 7163" class="cls-3" d="M1979.87,756.66c.18-.35.36-.7.56-1.04a6,6,0,0,1,.46-.66c.02-.03.05-.05.07-.08a16.109,16.109,0,0,0-1.64.88c-.88.53-1.73,1.11-2.6,1.67.53.39,1.08.75,1.64,1.09a4.634,4.634,0,0,0,1.51-1.86Z" transform="translate(-830.89 5785)"/>
    <path id="パス_7165" data-name="パス 7165" class="cls-3" d="M1973.66,754.75a.818.818,0,0,1-.04.11,35.988,35.988,0,0,0,2.99,2.5c.87-.59,1.71-1.21,2.59-1.78a16.617,16.617,0,0,1,1.8-1.01c.45-.21.9-.41,1.37-.61-.03,0-.07.01-.1.01-.14.02-.28.04-.42.05-.44.04-.88.06-1.32.1-.66.06-1.31.14-1.96.26a10.032,10.032,0,0,0-2.95,1.02h-.04a.06.06,0,0,1,.01-.04,10.508,10.508,0,0,1,3.71-1.36c.64-.12,1.28-.2,1.92-.26.17-.02.33-.03.5-.04.11,0,.22-.01.33-.02h.6c.12,0,.23.01.35.02.18-.07.36-.13.54-.19a63.774,63.774,0,0,1-6.85-3.48,16.144,16.144,0,0,0-3.04,4.7Z" transform="translate(-830.89 5785)"/>
    <path id="パス_7166" data-name="パス 7166" class="cls-3" d="M1988,760.56a3.73,3.73,0,0,1,1.05.04c1.39-.46,2.75-1,4.09-1.58.54-.23,1.08-.48,1.6-.74.06-.03.81-.41.61-.42.33-.55.67-1.09,1.02-1.64a5.668,5.668,0,0,0-2.62-.6,23.667,23.667,0,0,1-5.89-.68,8.495,8.495,0,0,1-.85.63,5.3,5.3,0,0,1-1.89.78c-.02,0-.03,0-.03-.02s0-.03.02-.03a5.336,5.336,0,0,0,1.81-.86,7.567,7.567,0,0,0,.7-.57,28.055,28.055,0,0,1-3.6-1.17c-.78.25-1.54.53-2.27.84l-.23.23c-.07.07-.14.15-.21.23s-.14.15-.2.23a7.764,7.764,0,0,0-.67.95,14.014,14.014,0,0,1-.97,1.52,3.409,3.409,0,0,1-1,.88,14.619,14.619,0,0,0,9.52,1.97Z" transform="translate(-830.89 5785)"/>
    <path id="パス_7192" data-name="パス 7192" class="cls-4" d="M1972.82,757.44c-.07.28-.13.56-.19.84,1.06.94,2.15,1.86,3.19,2.83,3.87,1.51,8.86.87,12.45-.23.26-.08.52-.18.78-.27a3.7,3.7,0,0,0-1.05-.04,14.741,14.741,0,0,1-9.52-1.97,3.383,3.383,0,0,1-.47.22.04.04,0,0,1-.04-.02.06.06,0,0,1,.01-.04,2.021,2.021,0,0,0,.38-.23c-.56-.33-1.1-.7-1.64-1.09-.48.31-.95.61-1.45.88-.02.01-.04,0-.06-.02a.044.044,0,0,1,.01-.05c.47-.28.93-.58,1.38-.89a38.427,38.427,0,0,1-2.99-2.5,17.923,17.923,0,0,0-.8,2.58Z" transform="translate(-830.89 5785)"/>
    <path id="パス_7198" data-name="パス 7198" class="cls-5" d="M1972.6,758.41l-.11.49a8.88,8.88,0,0,0,3.33,2.21c-1.04-.96-2.12-1.89-3.19-2.83A.61.61,0,0,1,1972.6,758.41Z" transform="translate(-830.89 5785)"/>
  </g>
</svg>
