<svg xmlns="http://www.w3.org/2000/svg" width="40.914" height="48.068" viewBox="0 0 40.914 48.068">
  <defs>
    <style>
      .cls-1 {
        fill: #dbfeb6;
      }

      .cls-2 {
        fill: #dbfeb5;
      }

      .cls-3 {
        fill: #dbfeb4;
      }

      .cls-4 {
        fill: #dafeb3;
      }
    </style>
  </defs>
  <g id="グループ_10" data-name="グループ 10" transform="translate(-900.028 -6530.32)">
    <path id="パス_7332" data-name="パス 7332" class="cls-1" d="M1730.98,768.92a22.566,22.566,0,0,0,7.65,15.76,31.585,31.585,0,0,0,7.92,4.7c.89-1.86,1.82-3.72,2.64-5.6.79.25,1.58.51,2.37.76-.1-.19-.21-.39-.31-.58-.1-.03-.21-.06-.31-.09-.38-.1-.76-.21-1.15-.32s-.76-.23-1.14-.36a23.437,23.437,0,0,1-2.84-1.2,18.191,18.191,0,0,1-2.64-1.6,12.344,12.344,0,0,1-3.95-4.64c0-.02,0-.04.01-.04s.04,0,.04.02a12.242,12.242,0,0,0,4.05,4.46,18.518,18.518,0,0,0,2.64,1.5,25.134,25.134,0,0,0,2.82,1.13c.52.18,1.03.34,1.55.5.23.07.46.14.69.22-.52-.97-1.05-1.96-1.63-3.05h.19a40.119,40.119,0,0,1-5.24-7.33,32.612,32.612,0,0,1-1.82-3.88c-.08-.13-.16-.25-.25-.38a6.682,6.682,0,0,0-.75-.92c-.07-.07-.15-.14-.23-.21-.09.1-.19.18-.28.29-1.64,1.78-5.91,1.13-10.04.88Z" transform="translate(-830.89 5785)"/>
    <path id="パス_7333" data-name="パス 7333" class="cls-1" d="M1758.93,765.01c-5.41-1.82-10.28-2.78-15.07.55-.09.24-.17.48-.24.73a6.847,6.847,0,0,0-.27,1.19,5.966,5.966,0,0,0-.05.85,6.067,6.067,0,0,0,.06.85,9.077,9.077,0,0,0,.18,1.02c.05.25.11.49.18.73.33.67.68,1.34,1.05,1.99a41.039,41.039,0,0,0,5.7,7.57,7.051,7.051,0,0,0,4.01-2.01c0-.62,0-1.25-.03-1.88a27.959,27.959,0,0,0-.49-4.39,21.911,21.911,0,0,0-1.28-4.23c0-.02,0-.04.02-.04s.03,0,.04.02a22.3,22.3,0,0,1,1.42,4.22,27.039,27.039,0,0,1,.62,4.42c.03.52.04,1.03.06,1.54a16.057,16.057,0,0,0,4.1-13.1Z" transform="translate(-830.89 5785)"/>
    <path id="パス_7334" data-name="パス 7334" class="cls-1" d="M1742.09,766.97a33.369,33.369,0,0,0,1.28,3.23c-.09-.33-.17-.66-.23-1a6.393,6.393,0,0,1-.09-.88,6.622,6.622,0,0,1,.04-.89,7.338,7.338,0,0,1,.29-1.23l.15-.42a15.089,15.089,0,0,0-1.44,1.19Z" transform="translate(-830.89 5785)"/>
    <path id="パス_7335" data-name="パス 7335" class="cls-1" d="M1741.69,767.81a5.854,5.854,0,0,1,.54.69c-.15-.41-.29-.83-.42-1.25-.12.11-.23.23-.35.35C1741.53,767.67,1741.62,767.74,1741.69,767.81Z" transform="translate(-830.89 5785)"/>
    <path id="パス_7345" data-name="パス 7345" class="cls-2" d="M1730.98,768.92c4.13.25,8.39.9,10.04-.88.09-.1.19-.19.28-.29-.11-.1-.21-.2-.32-.29q-.45-.39-.93-.75a17.5,17.5,0,0,1-1.38-1.18,14.813,14.813,0,0,1-2.06-2.56,10.627,10.627,0,0,1-1.3-3c0-.01,0-.02.02-.02s.02,0,.02.01a10.242,10.242,0,0,0,1.38,2.94,14.826,14.826,0,0,0,2.09,2.48c.38.36.79.68,1.2,1,.28.22.56.43.83.66.21.18.41.37.61.57.12-.12.23-.24.35-.35a31.83,31.83,0,0,1-1.47-10.81.06.06,0,0,1,.12,0,31.885,31.885,0,0,0,1.63,10.53,16.766,16.766,0,0,1,1.44-1.19,24.4,24.4,0,0,0,.82-2.31,7.09,7.09,0,0,0,.21-2.19,9.012,9.012,0,0,0-.4-2.18.022.022,0,0,1,.04-.02,8.74,8.74,0,0,1,.47,2.19,7.339,7.339,0,0,1-.15,2.24,19.374,19.374,0,0,1-.66,2.04c4.8-3.33,9.66-2.37,15.07-.55l2.13-1.83c-7.58-4.68-16.68-8.3-18.4-17.86l-2.79,2.57c-2.39,2.46-4.91,4.9-6.44,8.02a25.584,25.584,0,0,0-2.44,13.03Z" transform="translate(-830.89 5785)"/>
    <path id="パス_7346" data-name="パス 7346" class="cls-3" d="M1754.83,778.11c.02.76.04,1.52.08,2.26.02.42.05.84.09,1.25s.1.83.18,1.24a10.126,10.126,0,0,0,.57,2,8.519,8.519,0,0,0,.41.87c1.07.88,2.15,1.76,3.24,2.6,1.11.86,2.25,1.68,3.43,2.42a25.476,25.476,0,0,0,3.47,1.83c.14.06.29.12.43.18.23-.11.46-.23.69-.34.32-.16.94-.9.92-.54,1.43-1.86,2.09-4.64,2.7-6.9a22.74,22.74,0,0,0,.61-3.15c-.51-.39-1-.77-1.44-1.12-4.89-3.88-3.7-8.22-3.15-13a32.976,32.976,0,0,0-6.02-4.54l-2.13,1.83a16.046,16.046,0,0,1-4.1,13.1Z" transform="translate(-830.89 5785)"/>
    <path id="パス_7347" data-name="パス 7347" class="cls-3" d="M1749.19,783.79c-.81,1.88-1.75,3.74-2.64,5.6a58.864,58.864,0,0,0,9.58,3.07,30.136,30.136,0,0,0,6.26.92c.71.02,1.41,0,2.12-.03.29-.01,1.09-.12,1.02-.08a8.766,8.766,0,0,0,.96-.39,22.59,22.59,0,0,1-3.89-1.73,34.583,34.583,0,0,1-3.57-2.32c-1.14-.83-2.25-1.71-3.36-2.6-.57-.46-1.13-.94-1.68-1.42-.26-.1-.52-.19-.78-.28-.38-.12-.75-.24-1.13-.35-.27-.08-.55-.16-.83-.23.1.19.21.39.31.58-.79-.25-1.58-.51-2.37-.76Z" transform="translate(-830.89 5785)"/>
    <path id="パス_7348" data-name="パス 7348" class="cls-3" d="M1752.24,782.28c1.13,1.09,2.31,2.14,3.56,3.16-.09-.16-.18-.32-.25-.48a9.2,9.2,0,0,1-.7-2.03c-.1-.42-.16-.84-.22-1.27s-.08-.85-.11-1.28c-.03-.64-.04-1.28-.04-1.93a7.051,7.051,0,0,1-4.01,2.01c.58.61,1.16,1.22,1.78,1.81Z" transform="translate(-830.89 5785)"/>
    <path id="パス_7349" data-name="パス 7349" class="cls-3" d="M1751.02,783.53a2.17,2.17,0,0,0,.24.07c.47.15.94.3,1.4.48.31.11.61.23.91.36-.62-.55-1.21-1.1-1.79-1.67-.76-.75-1.49-1.51-2.19-2.3h-.19c.58,1.1,1.11,2.09,1.63,3.05Z" transform="translate(-830.89 5785)"/>
    <path id="パス_7364" data-name="パス 7364" class="cls-4" d="M1770.22,780.71c.44.35.93.73,1.44,1.12a21.277,21.277,0,0,0,.15-3.66,15.132,15.132,0,0,0-4.74-10.46C1766.52,772.49,1765.32,776.83,1770.22,780.71Z" transform="translate(-830.89 5785)"/>
  </g>
</svg>
