<svg xmlns="http://www.w3.org/2000/svg" width="25.37" height="21.667" viewBox="0 0 25.37 21.667">
  <defs>
    <style>
      .cls-1 {
        fill: #d8fcad;
      }

      .cls-2 {
        fill: #d7fbaa;
      }

      .cls-3 {
        fill: #d6fba7;
      }
    </style>
  </defs>
  <g id="グループ_8" data-name="グループ 8" transform="translate(-813.29 -6760.762)">
    <path id="パス_7350" data-name="パス 7350" class="cls-1" d="M1666.41,978.49s.02.04,0,.06h0a13.669,13.669,0,0,0,3.14,2.78,20.679,20.679,0,0,0-.23-2.94c-.05-.38-.11-.75-.18-1.12,0-.03-.09-.57-.09-.57a10.3,10.3,0,0,0-4.86-.93c.78,1.06,1.49,1.96,2.15,2.71.02-.01.04-.02.06,0Z" transform="translate(-830.89 5785)"/>
    <path id="パス_7351" data-name="パス 7351" class="cls-2" d="M1666.41,978.57c-1.12,1.44-2.03,3.02-3.09,4.49a17.25,17.25,0,0,1-1.49,1.83c-.39.41-.79.82-1.2,1.22.03-.02.07-.04.1-.06.14-.08.28-.16.43-.23.45-.23.91-.43,1.36-.66.67-.34,1.34-.7,1.97-1.1a11.113,11.113,0,0,0,2.7-2.33c0-.01.03-.02.04,0a.033.033,0,0,1,0,.05,11.933,11.933,0,0,1-3.37,3c-.62.39-1.27.75-1.93,1.09-.17.09-.34.17-.51.26-.11.05-.23.11-.35.16a2.6,2.6,0,0,1-.25.1c-.13.05-.25.1-.38.14s-.25.08-.38.12a32.661,32.661,0,0,1-3.07,2.52,29.132,29.132,0,0,1-3.57,2.22l.06.15c.33-.05.66-.1.99-.12.27-.02.55-.02.82-.02,1.08.02,2.15.16,3.22.1a7.988,7.988,0,0,0,1.67-.28,11.313,11.313,0,0,0,1.6-.58c.02,0,.03,0,.04.01s0,.03-.02.04a12.332,12.332,0,0,1-1.59.65,8.058,8.058,0,0,1-1.69.35c-1.08.1-2.16-.01-3.24,0-.26,0-.53.02-.8.04a8.708,8.708,0,0,0-.87.13c.91,1.87,2.75,3.4,5.83,4.68a.21.21,0,0,1,.07.03,13.331,13.331,0,0,0,7.47-5.93,18.876,18.876,0,0,0,2.55-9.03v-.27a13.465,13.465,0,0,1-3.14-2.78Z" transform="translate(-830.89 5785)"/>
    <path id="パス_7352" data-name="パス 7352" class="cls-2" d="M1646.55,986.04c.04-.12.08-.23.12-.34-.09.09-.17.18-.25.27a1.479,1.479,0,0,0,.13.08Z" transform="translate(-830.89 5785)"/>
    <path id="パス_7353" data-name="パス 7353" class="cls-2" d="M1654.07,983.18a14.971,14.971,0,0,0-1.04,6.61c.09-.14.2-.27.28-.41.63-1.08,1.07-2.12,1.73-3.03a6.337,6.337,0,0,1,1.67-1.63c.01-.01.03,0,.04,0s0,.03,0,.04a6.1,6.1,0,0,0-1.56,1.67c-.61.94-1,1.99-1.58,3.1a8.316,8.316,0,0,1-.49.81c.04.18.09.35.14.52a31.22,31.22,0,0,0,3.47-2.08,34.326,34.326,0,0,0,4.33-3.56l.15-.33c.05-.11.08-.22.13-.33l.12-.33a9.331,9.331,0,0,0,.31-1.29,15,15,0,0,1,.39-2.02,3.8,3.8,0,0,1,1.09-1.79.028.028,0,1,1,.04.04,4.619,4.619,0,0,0-1.12,3.02c-.05.45-.08.9-.16,1.34a5.519,5.519,0,0,1-.22.89c-.01.04-.03.07-.04.11a19.24,19.24,0,0,0,1.37-1.62c1.11-1.45,2.06-3,3.22-4.41h0c-.66-.76-1.37-1.65-2.15-2.71a21.33,21.33,0,0,0-10.36,3.76,6.083,6.083,0,0,1,.22,3.64Z" transform="translate(-830.89 5785)"/>
    <path id="パス_7365" data-name="パス 7365" class="cls-3" d="M1646.42,985.96c-.24.25-.49.5-.72.76-.05.05-.69.78-.48.7-.33,2.01-.84,4.06-1.03,6.15.64-.04,1.27-.13,1.9-.23.7-.12,1.38-.27,2.07-.46a25.476,25.476,0,0,0,2.51-.84c.3-.12.6-.24.9-.37l.56-.66c.12-.14.24-.28.35-.42.2-.25.37-.53.54-.79a14.688,14.688,0,0,1,1.04-6.61,6.162,6.162,0,0,0-.22-3.64c-.85.55-1.65,1.13-2.37,1.7a55.471,55.471,0,0,0-4.39,4.01c-.14.14-.28.29-.42.44-.04.12-.08.23-.12.34a1.479,1.479,0,0,0-.13-.08Z" transform="translate(-830.89 5785)"/>
    <path id="パス_7366" data-name="パス 7366" class="cls-3" d="M1653.34,991.44c-.12.06-.25.13-.37.19a4.9,4.9,0,0,1,.53-.09.936.936,0,0,1-.06-.15.314.314,0,0,1-.1.05Z" transform="translate(-830.89 5785)"/>
    <path id="パス_7367" data-name="パス 7367" class="cls-3" d="M1653.64,991.87c-.19.04-.38.07-.57.12-.39.09-.78.2-1.17.31l-.75.2c-.14.03-.27.07-.41.1a19.775,19.775,0,0,1-2.46.73,17.5,17.5,0,0,1-2.13.35,16.141,16.141,0,0,1-1.97.08h0l3.33,2.34a17.312,17.312,0,0,0,12.03.47c-.02-.01-.05-.02-.07-.03-3.08-1.28-4.92-2.8-5.83-4.68Z" transform="translate(-830.89 5785)"/>
    <path id="パス_7368" data-name="パス 7368" class="cls-3" d="M1652.74,990.87c-.12.15-.24.29-.36.43.24-.11.48-.23.71-.35.06-.03.11-.06.17-.09a4.412,4.412,0,0,1-.14-.52A6.429,6.429,0,0,1,1652.74,990.87Z" transform="translate(-830.89 5785)"/>
  </g>
</svg>
