<svg xmlns="http://www.w3.org/2000/svg" width="26.056" height="14.787" viewBox="0 0 26.056 14.787">
  <defs>
    <style>
      .cls-1 {
        fill: #f3ffe5;
      }

      .cls-2 {
        fill: #f3ffe6;
      }

      .cls-3 {
        fill: #f5ffe8;
      }

      .cls-4 {
        fill: #f3ffe7;
      }
    </style>
  </defs>
  <g id="グループ_14" data-name="グループ 14" transform="translate(-1250.7 -6768.029)">
    <path id="パス_7136" data-name="パス 7136" class="cls-1" d="M2081.59,992.56l.04.02v-.06C2081.62,992.53,2081.61,992.55,2081.59,992.56Z" transform="translate(-830.89 5785)"/>
    <path id="パス_7137" data-name="パス 7137" class="cls-1" d="M2102.67,996.96c.09-.06.18-.13.27-.19a10.118,10.118,0,0,1-5.93-2.51,32.073,32.073,0,0,0-4.48,1.97c3.19,1.04,7.32,2.56,10.15.73Z" transform="translate(-830.89 5785)"/>
    <path id="パス_7143" data-name="パス 7143" class="cls-2" d="M2102.94,996.77a13.111,13.111,0,0,0,4.6-7.08c-.91.9-1.87,1.86-2.97,2.95-.92-.72-2.15-1.67-3.55-2.76-.2.02-.4.03-.6.05h0v.02c0,.01-.02.02-.03.02h0q-1.695,2.145-3.39,4.3a10.119,10.119,0,0,0,5.93,2.51Z" transform="translate(-830.89 5785)"/>
    <path id="パス_7145" data-name="パス 7145" class="cls-3" d="M2086.9,991.33a5.852,5.852,0,0,0-1.14.59c-.02.01-.04,0-.05,0-.01-.02,0-.04,0-.05a6.474,6.474,0,0,1,1.74-.88,28.372,28.372,0,0,1,7.01-3,9.357,9.357,0,0,0-1.66-.24,22.882,22.882,0,0,0-2.87.06c-.02,0-.03-.01-.03-.02s0-.03.02-.03a23.069,23.069,0,0,1,2.88-.17,9.5,9.5,0,0,1,1.92.22c.07.02.14.04.22.06a35.313,35.313,0,0,1,12.29-.71,5.171,5.171,0,0,0-1.14-.62,40.324,40.324,0,0,0-4.24-2.04,20.278,20.278,0,0,0-4.65-1.33c-5.2-.76-8.8,1.64-11.9,4.93-.27,1.53-.55,3.14-.84,4.9.8-.61,1.6-1.14,2.4-1.64Z" transform="translate(-830.89 5785)"/>
    <path id="パス_7146" data-name="パス 7146" class="cls-4" d="M2100.39,989.97l-.15-.03c-.3.02-.6.03-.9.04-.98.03-1.96.03-2.95.04l-.9.55c-.08.05-.17.1-.25.15-.39.22-.79.46-1.2.69a15.553,15.553,0,0,1-1.86.95,4.534,4.534,0,0,1-2.09.38.03.03,0,0,1,0-.06,4.586,4.586,0,0,0,2.02-.49,17.137,17.137,0,0,0,1.79-1.03c.4-.25.79-.51,1.18-.73.09-.05.18-.1.27-.14a3.784,3.784,0,0,1,.42-.18c.09-.03.17-.06.26-.09-.36,0-.72,0-1.08.01a26.183,26.183,0,0,0-4.36.38,24.747,24.747,0,0,0-2.99.65c-.24.07-.47.17-.7.26-.8.5-1.6,1.03-2.4,1.64.29-1.76.57-3.37.84-4.9-1.3,1.38-2.51,2.92-3.71,4.44v.06l4.81,2c1.48.53,3.08.79,4.59,1.2.46.13.96.29,1.49.46a32.066,32.066,0,0,1,4.48-1.97c1.13-1.43,2.26-2.87,3.39-4.3Z" transform="translate(-830.89 5785)"/>
    <path id="パス_7147" data-name="パス 7147" class="cls-4" d="M2100.42,989.93Z" transform="translate(-830.89 5785)"/>
    <path id="パス_7148" data-name="パス 7148" class="cls-4" d="M2107.54,989.69a4.512,4.512,0,0,0,.01-1.9,1.666,1.666,0,0,0-.14.1,10.482,10.482,0,0,1-1.68.9,12.832,12.832,0,0,1-1.81.61c-.26.07-.53.13-.8.18q-.93.18-1.89.27a1.633,1.633,0,0,0-.22.02c1.4,1.09,2.63,2.04,3.55,2.76,1.1-1.09,2.06-2.05,2.97-2.95Z" transform="translate(-830.89 5785)"/>
    <path id="パス_7149" data-name="パス 7149" class="cls-4" d="M2094.97,987.84a19.71,19.71,0,0,1,2.1.67c.39.15.79.31,1.18.47.17.07.33.14.5.21.11.05.22.09.33.14.15.07.3.13.45.2.56-.03,1.11-.07,1.66-.12.62-.06,1.24-.13,1.85-.24.53-.09,1.05-.2,1.56-.34.34-.09.68-.2,1.02-.32a11.686,11.686,0,0,0,1.71-.75c.06-.03.12-.07.18-.1a2.487,2.487,0,0,0-.14-.38.528.528,0,0,0-.12-.15,35.324,35.324,0,0,0-12.29.71Z" transform="translate(-830.89 5785)"/>
    <path id="パス_7150" data-name="パス 7150" class="cls-4" d="M2087.56,990.93a25.392,25.392,0,0,1,2.98-.74,27.565,27.565,0,0,1,4.39-.5c1.3-.06,2.62-.07,3.93-.12-.08-.03-.15-.05-.23-.08-.16-.06-.32-.12-.47-.18-.24-.1-.47-.19-.7-.29a19.347,19.347,0,0,0-2.76-1,1.425,1.425,0,0,0-.22-.04,28.055,28.055,0,0,0-7.01,3c.03-.01.06-.03.09-.04Z" transform="translate(-830.89 5785)"/>
  </g>
</svg>
