<svg xmlns="http://www.w3.org/2000/svg" width="59.91" height="38.115" viewBox="0 0 59.91 38.115">
  <defs>
    <style>
      .cls-1 {
        fill: #f2ffe3;
      }

      .cls-2 {
        fill: #f1ffe1;
      }

      .cls-3 {
        fill: #edffda;
      }

      .cls-4 {
        fill: #eeffdb;
      }

      .cls-5 {
        fill: #f0ffdf;
      }

      .cls-6 {
        fill: #ecffd7;
      }

      .cls-7 {
        fill: #efffdd;
      }
    </style>
  </defs>
  <g id="グループ_13" data-name="グループ 13" transform="translate(-1098.835 -6766.191)">
    <path id="パス_7144" data-name="パス 7144" class="cls-1" d="M1966.11,1019a16.183,16.183,0,0,0,2.84-.81,13.882,13.882,0,0,0,4.36-2.65,5.633,5.633,0,0,1-3.7-1.87C1968.44,1015.45,1967.28,1017.22,1966.11,1019Z" transform="translate(-830.89 5785)"/>
    <path id="パス_7159" data-name="パス 7159" class="cls-2" d="M1988.14,1000.01a10.266,10.266,0,0,0,1.48-6.32,15.638,15.638,0,0,0-.22-2.06c-1.51,1.25-3.03,2.52-4.58,3.75-.47.37-.95.71-1.42,1.06,1.19,1.89,2.64,3.76,3.07,5.42A9.487,9.487,0,0,0,1988.14,1000.01Z" transform="translate(-830.89 5785)"/>
    <path id="パス_7160" data-name="パス 7160" class="cls-2" d="M1961.9,1009.1a17.9,17.9,0,0,0,3.73-2.08c-.06-.14-.12-.27-.19-.41A12,12,0,0,0,1961.9,1009.1Z" transform="translate(-830.89 5785)"/>
    <path id="パス_7161" data-name="パス 7161" class="cls-2" d="M1983.1,995.94c.47-.33.95-.64,1.42-.98,1.63-1.15,3.25-2.32,4.84-3.49-.13-.35-.5-.88-.21-.83-.79-.48-1.6-.96-2.43-1.46a18.532,18.532,0,0,1-4.38,1.03c-1.16,1.77-.41,3.74.76,5.71Z" transform="translate(-830.89 5785)"/>
    <path id="パス_7162" data-name="パス 7162" class="cls-2" d="M1958.39,1018.7a17.146,17.146,0,0,0,7.72.3c1.16-1.78,2.33-3.55,3.5-5.33a5.68,5.68,0,0,0,3.7,1.87c2.61-2.32,4.27-5.34,6.63-8.17-4.15,2.64-9.87,9.05-14.11.09a17.422,17.422,0,0,1-4.46,2.18,12.945,12.945,0,0,0-2.98,9.05Z" transform="translate(-830.89 5785)"/>
    <path id="パス_7164" data-name="パス 7164" class="cls-3" d="M1935.48,996.81s-.06-.04-.06-.08.04-.06.08-.06c.39.06.78.16,1.16.24-.02-1.06-.03-2.12-.02-3.18a9.008,9.008,0,0,1,.48-2.72c-.31.04-.61.09-.93.13-1.38.15-2.76.24-4.14.31a26.669,26.669,0,0,1,2.74,8.99c.7.75,1.39,1.51,2.08,2.26q-.15-2.82-.21-5.64c-.39-.09-.79-.18-1.19-.26Z" transform="translate(-830.89 5785)"/>
    <path id="パス_7167" data-name="パス 7167" class="cls-4" d="M1936.66,996.91a46.557,46.557,0,0,1,8.1,2.58c-3.54-2.63-6.13-5.37-3.52-9.32a32.828,32.828,0,0,1-4.13.84,9.271,9.271,0,0,0-.48,2.72c0,1.06,0,2.12.02,3.18Z" transform="translate(-830.89 5785)"/>
    <path id="パス_7168" data-name="パス 7168" class="cls-4" d="M1942.33,1008.31a32,32,0,0,1,1.34-5.79h-.33a8.155,8.155,0,0,1-3.19-.86.048.048,0,0,1-.02-.06c0-.02.04-.03.06-.02a8.1,8.1,0,0,0,3.17.65c.14,0,.28-.01.42-.01a18.1,18.1,0,0,1,1.03-2.34,47.459,47.459,0,0,0-8.14-2.81q.06,2.82.21,5.64c.98,1.06,1.97,2.12,2.98,3.15.79.81,1.62,1.63,2.47,2.46Z" transform="translate(-830.89 5785)"/>
    <path id="パス_7187" data-name="パス 7187" class="cls-5" d="M1953.55,1002.87s-.09-.06-.13-.09a.06.06,0,0,1-.01.04c.05.02.1.03.14.05Z" transform="translate(-830.89 5785)"/>
    <path id="パス_7188" data-name="パス 7188" class="cls-5" d="M1979.94,1007.37c.33-.4.68-.8,1.05-1.19,1.59-1.68,3.74-2.8,5.49-4.33-.43-1.66-1.89-3.53-3.07-5.42-.65.49-1.3,1-1.97,1.47-1.08.76-2.18,1.47-3.29,2.15.35.55.7,1.12,1.03,1.74-1.23-.08-2.48-.15-3.73-.23a35.677,35.677,0,0,1-3.28,1.5c-.63.25-1.27.47-1.92.67-.09.07-.18.15-.27.22-.19.15-.37.31-.55.47s-.36.32-.53.49c-.24.22-.47.44-.71.66s-.48.44-.73.65c-.37.32-.76.63-1.16.92-.15.1-.3.2-.46.3,4.24,8.96,9.96,2.55,14.11-.09Z" transform="translate(-830.89 5785)"/>
    <path id="パス_7189" data-name="パス 7189" class="cls-5" d="M1953.52,1002.46c.19.18.38.36.58.54l.09.08a30.3,30.3,0,0,0,4.06.93,25.4,25.4,0,0,0,13.61-1.68c.66-.26,1.31-.55,1.96-.85-6.34-.39-12.94-.8-19.62-1.21-.22.72-.45,1.46-.68,2.19Z" transform="translate(-830.89 5785)"/>
    <path id="パス_7190" data-name="パス 7190" class="cls-5" d="M1977.72,999.41c1.12-.65,2.24-1.33,3.33-2.06.69-.45,1.37-.94,2.05-1.41-1.17-1.97-1.92-3.95-.76-5.71a18.529,18.529,0,0,0,4.38-1.03c-2.34-1.39-4.81-2.81-7.39-4.06-1.18,3.34-2.9,6.54-3.55,9.96-.22,1.15.77,2.54,1.93,4.31Z" transform="translate(-830.89 5785)"/>
    <path id="パス_7191" data-name="パス 7191" class="cls-5" d="M1958.39,1018.7a12.9,12.9,0,0,1,2.98-9.05.783.783,0,0,1-.14.05,13.384,13.384,0,0,1-5.58.56.045.045,0,1,1,.01-.09,13.459,13.459,0,0,0,5.48-.77c.26-.09.51-.2.77-.3a12.128,12.128,0,0,1,3.54-2.49c.06.15.12.27.19.41.12-.09.25-.17.36-.26.59-.44,1.11-.93,1.65-1.4.15-.13.29-.26.44-.38.22-.19.45-.38.69-.56.19-.14.38-.28.58-.42a25.218,25.218,0,0,1-11.2.6,31.814,31.814,0,0,1-4.68-1.21,1.8,1.8,0,0,1-.21-.08q-1.7,5.475-3.47,11.22a27.842,27.842,0,0,0,8.61,4.16Z" transform="translate(-830.89 5785)"/>
    <path id="パス_7193" data-name="パス 7193" class="cls-6" d="M1931.96,991.46c-.7.04-2.78-.02-2.1.11l2.79,6.49c-.08.42,1.56,1.76,1.79,2.01l.35.38a26.9,26.9,0,0,0-2.74-8.99h-.09Z" transform="translate(-830.89 5785)"/>
    <path id="パス_7194" data-name="パス 7194" class="cls-7" d="M1946.54,1002.01c.43-.05.86-.1,1.28-.14.29-.03.58-.05.86-.06h.61c-1.51-.63-3-1.3-4.5-1.94a17.512,17.512,0,0,0-1.03,2.34,26.179,26.179,0,0,0,2.77-.2Z" transform="translate(-830.89 5785)"/>
    <path id="パス_7195" data-name="パス 7195" class="cls-7" d="M1978.14,1000.06c-.39.24-.78.49-1.18.71-.5.28-1.01.54-1.52.8,1.25.08,2.51.15,3.73.23-.33-.62-.68-1.19-1.03-1.74Z" transform="translate(-830.89 5785)"/>
    <path id="パス_7196" data-name="パス 7196" class="cls-7" d="M1949.78,1014.54q1.77-5.745,3.47-11.22-1.53-.525-3.03-1.14l-.93.09c-.19.02-.38.03-.57.05l-.85.06-1.29.09a23.786,23.786,0,0,1-2.92.05,31.992,31.992,0,0,0-1.34,5.79,60.114,60.114,0,0,0,7.45,6.23Z" transform="translate(-830.89 5785)"/>
    <path id="パス_7197" data-name="パス 7197" class="cls-7" d="M1944.76,999.49c2.87,1.15,5.7,2.4,8.64,3.34a.06.06,0,0,1,.01-.04c-.1-.07-.21-.13-.31-.2-.21-.14-.41-.3-.6-.45s-.39-.32-.57-.49c-.27-.25-.54-.51-.8-.78-.39-.4-.77-.81-1.14-1.21a29.875,29.875,0,0,0-2.96-2.89,10.8,10.8,0,0,0-3.67-2.01.041.041,0,1,1,.02-.08,10.887,10.887,0,0,1,3.82,1.86,26.484,26.484,0,0,1,3.11,2.8c.39.39.78.78,1.18,1.17.26.26.52.51.79.77.18.17.35.34.53.52s.35.34.53.51c.06.06.12.11.18.16.23-.73.45-1.47.68-2.19,6.69.41,13.28.82,19.62,1.21.02,0,.04-.02.05-.02a2.081,2.081,0,0,1-.22-.04c-.09-.02-.17-.04-.25-.06a4.74,4.74,0,0,1-.5-.15,9.39,9.39,0,0,1-1.84-.94c-1.77-1.12-3.32-2.7-4.93-3.96a18.441,18.441,0,0,0-4.61-2.69,15.034,15.034,0,0,0-5.24-1.02.04.04,0,1,1,0-.08,15.237,15.237,0,0,1,5.32.89,18.473,18.473,0,0,1,4.75,2.61c1.62,1.21,3.2,2.73,4.97,3.82a10.716,10.716,0,0,0,1.76.88c.15.06.3.12.46.18.08.03.15.06.23.09l.63.22c.73-.35,1.45-.73,2.16-1.12.39-.21.77-.44,1.15-.67-1.16-1.77-2.15-3.16-1.93-4.31.65-3.42,2.36-6.62,3.55-9.96-5.81-2.82-12.12-4.79-18.37-3.63-4.48.83-8.4,3.49-12.33,5.66a33.084,33.084,0,0,1-7.39,3.01c-2.61,3.95-.03,6.69,3.52,9.32Z" transform="translate(-830.89 5785)"/>
  </g>
</svg>
